<svg xmlns="http://www.w3.org/2000/svg" width="53" height="66.491" viewBox="0 0 53 66.491"><g transform="translate(-1769.5 -7414.421)"><path d="M100.34,113.393l-5.182,4.89,0,0L77.84,99.94,60.526,118.287l-5.186-4.894L77.84,89.55Z" transform="translate(1718.16 7328.871)" fill="#004c34"/><path d="M60.526,122.287a3.986,3.986,0,0,1-2.745-1.091L52.595,116.3a4,4,0,0,1-.164-5.655L74.931,86.8a4,4,0,0,1,5.818,0l22.5,23.843a4,4,0,0,1-.164,5.655l-5.182,4.89a4.005,4.005,0,0,1-5.659-.16l-14.4-15.265-14.4,15.265A3.989,3.989,0,0,1,60.526,122.287ZM77.84,95.94a4,4,0,0,1,.568.041l-.568-.6-.568.6A4,4,0,0,1,77.84,95.94Z" transform="translate(1718.16 7328.871)" fill="#004c34"/><path d="M23.288,17H20.872V7.592h-3.1V5.576h8.624V7.592h-3.1ZM38.2,11.272a7.6,7.6,0,0,1-.584,3.1,4.461,4.461,0,0,1-1.792,2.056,5.806,5.806,0,0,1-3.064.736,5.806,5.806,0,0,1-3.064-.736A4.455,4.455,0,0,1,27.9,14.36a7.656,7.656,0,0,1-.584-3.1A7.542,7.542,0,0,1,27.9,8.168,4.422,4.422,0,0,1,29.7,6.128a5.891,5.891,0,0,1,3.08-.728,5.813,5.813,0,0,1,3.056.728,4.429,4.429,0,0,1,1.784,2.048A7.6,7.6,0,0,1,38.2,11.272Zm-8.336,0a5.039,5.039,0,0,0,.688,2.824,2.46,2.46,0,0,0,2.208,1.032A2.453,2.453,0,0,0,34.985,14.1a5.133,5.133,0,0,0,.672-2.824,5.133,5.133,0,0,0-.672-2.824,2.436,2.436,0,0,0-2.208-1.032,2.477,2.477,0,0,0-2.224,1.032A5.039,5.039,0,0,0,29.865,11.272Zm14.352-5.7a4.6,4.6,0,0,1,3.224.952,3.411,3.411,0,0,1,1.016,2.616,4.258,4.258,0,0,1-.416,1.872,3.14,3.14,0,0,1-1.384,1.392,5.524,5.524,0,0,1-2.632.528h-1.04V17H40.569V5.576ZM44.089,7.56h-1.1v3.392h.8a2.848,2.848,0,0,0,1.624-.408,1.481,1.481,0,0,0,.6-1.32Q46.009,7.56,44.089,7.56Zm7.2,6.69-1.422-1.109a66.915,66.915,0,0,0,3.313-6.492A1.345,1.345,0,0,1,54.489,5.8a1.422,1.422,0,0,1,1.25.711q2.289,3.586,3.148,4.766a36.876,36.876,0,0,0,3.188,3.789l-1.266,1.664q-2.289-2.953-3.07-4.078Q56.348,10.672,55,8.359q-.242-.414-.43-.414-.227,0-.414.43Q52.919,11.234,51.286,14.25Z" transform="translate(1756 7463.752)" fill="#004c34"/></g></svg>