<svg xmlns="http://www.w3.org/2000/svg" width="74" height="32" viewBox="0 0 74 32"><g transform="translate(-1126.622 -7149.27)"><path d="M8,1A7.008,7.008,0,0,0,1,8V24a7.008,7.008,0,0,0,7,7H66a7.008,7.008,0,0,0,7-7V8a7.008,7.008,0,0,0-7-7H8M8,0H66a8,8,0,0,1,8,8V24a8,8,0,0,1-8,8H8a8,8,0,0,1-8-8V8A8,8,0,0,1,8,0Z" transform="translate(1126.622 7149.27)" fill="#00724e"/><path d="M-7.691-11.984q.547.016,1.75.016,1.031,0,1.906-.047.141,0,.141.211t-.141.219a5.579,5.579,0,0,0-.8.109.608.608,0,0,0-.344.289,3.581,3.581,0,0,0-.242,1.609V-9.1l.094,5.8q.023,1.2.078,1.594a2.033,2.033,0,0,0,.164.531.665.665,0,0,0,.453.328,7.162,7.162,0,0,0,.75.094q.141.016.141.2t-.156.2Q-5.012-.4-6.285-.4-7.5-.4-8.543-.352q-.125,0-.125-.211,0-.172.125-.187a5.1,5.1,0,0,0,.766-.109.626.626,0,0,0,.359-.312,3.468,3.468,0,0,0,.2-1.477V-3.3l-.07-7.008h-.141L-9.77-4.578q-.367.914-.969,2.359-.453,1.094-.7,1.688a.291.291,0,0,1-.3.18.3.3,0,0,1-.32-.18Q-12.5-1.711-13.6-4.258L-16.137-10.3h-.2L-16.363-3.3a4.465,4.465,0,0,0,.3,2.047q.227.352,1.18.5a.165.165,0,0,1,.164.188q0,.211-.18.211Q-15.816-.4-16.73-.4q-.93,0-1.859.047-.156,0-.156-.2a.177.177,0,0,1,.156-.2,1.58,1.58,0,0,0,1.078-.5A4.605,4.605,0,0,0-17.129-3.3l.156-5.8q.016-.484.016-.766a2.632,2.632,0,0,0-.227-1.32.809.809,0,0,0-.555-.3q-.07-.016-.727-.094-.141-.023-.141-.219,0-.211.125-.211.945.047,1.844.047,1.234,0,1.891-.016a18.6,18.6,0,0,0,.656,1.844L-11.848-4.8q.391.938.781,1.945.031-.078.734-1.914l1.953-5.141Q-8-10.891-7.691-11.984ZM3.926-4.75Q2.848-4.812,2.1-4.812q-.617,0-1.984.063L-.5-3.07A3.821,3.821,0,0,0-.762-1.836a1.5,1.5,0,0,0,.1.555Q-.5-.891.582-.766q.141,0,.141.2t-.18.211Q-.043-.383-1.449-.383q-1.156,0-1.68.031-.18,0-.18-.211t.18-.2a1.808,1.808,0,0,0,.938-.5,5.405,5.405,0,0,0,.977-1.867L.707-8.32q.719-1.937,1.156-3.359l1.258-.578a.193.193,0,0,1,.211.148q.117.359,1.328,3.883l1.8,5.219a6.894,6.894,0,0,0,.8,1.82.918.918,0,0,0,.422.328A3.11,3.11,0,0,0,8.3-.766q.211,0,.211.2A.186.186,0,0,1,8.3-.352Q6.879-.383,6.035-.383q-.828,0-2.258.031-.125,0-.125-.211t.125-.2q1-.055,1.109-.422a.958.958,0,0,0,.047-.3A4.967,4.967,0,0,0,4.6-2.867ZM2.066-10.289,1.348-8.227.324-5.391q.523.031,1.773.031,1.141,0,1.6-.031L2.738-8.2Q2.48-8.93,2.066-10.289Zm10.4,4.625v2.352q0,1.391.016,1.617a1.27,1.27,0,0,0,.125.508.68.68,0,0,0,.508.32q.164.039.8.1.125.016.125.2,0,.211-.141.211Q12.746-.4,11.551-.4q-1.266,0-2.289.047-.125,0-.125-.211t.141-.2a3.618,3.618,0,0,0,.75-.109.626.626,0,0,0,.367-.312,6.834,6.834,0,0,0,.18-2.125V-9.1q0-1.258-.023-1.539a1.622,1.622,0,0,0-.133-.547.745.745,0,0,0-.523-.3q-.141-.031-.766-.094-.141-.016-.141-.219t.141-.211q1.062.047,2.391.047l2.625-.062q4.5,0,4.5,3.086,0,3.344-4.992,3.344A9.979,9.979,0,0,1,12.465-5.664Zm0-.594a5.3,5.3,0,0,0,1.023.094A3.185,3.185,0,0,0,16-7.055,2.639,2.639,0,0,0,16.6-8.867a2.47,2.47,0,0,0-.828-2.039,3,3,0,0,0-1.945-.578q-.922,0-1.148.336A5.328,5.328,0,0,0,12.465-9.1Z" transform="translate(1163.622 7171.27)" fill="#00724e"/></g></svg>