<svg xmlns="http://www.w3.org/2000/svg" width="244.258" height="68.863" viewBox="0 0 244.258 68.863"><path d="M20.722,3C10.95,3,3,11.581,3,22.129V52.735c0,10.548,7.95,19.129,17.722,19.129H49.078c9.772,0,17.722-8.581,17.722-19.129V22.129C66.8,11.581,58.851,3,49.078,3Zm0,7.652H49.078c5.863,0,10.633,5.149,10.633,11.477V52.735c0,6.328-4.771,11.477-10.633,11.477H20.722c-5.863,0-10.633-5.149-10.633-11.477V22.129C10.089,15.8,14.86,10.652,20.722,10.652Zm31.9,3.826A3.693,3.693,0,0,0,49.078,18.3a3.555,3.555,0,1,0,7.089,0A3.693,3.693,0,0,0,52.623,14.477ZM34.9,18.3c-9.772,0-17.722,8.581-17.722,19.129S25.128,56.561,34.9,56.561s17.722-8.581,17.722-19.129S44.673,18.3,34.9,18.3Zm0,7.652c5.863,0,10.633,5.149,10.633,11.477S40.763,48.909,34.9,48.909,24.267,43.76,24.267,37.432,29.038,25.955,34.9,25.955Z" transform="translate(-3 -3)" fill="#00724e"/><text transform="translate(89.258 48)" fill="#00724e" font-size="36" font-family="NotoSans-Medium, Noto Sans" font-weight="500"><tspan x="0" y="0">follow us</tspan></text></svg>