<svg xmlns="http://www.w3.org/2000/svg" xmlns:xlink="http://www.w3.org/1999/xlink" width="50.652"
  height="55.42" viewBox="0 0 50.652 55.42">
  <g transform="translate(-15.192 -565.7)">
    <path
      d="M459.37 151.716c.325 4.548.325 9.097.325 13.645 0 138.72-105.583 298.558-298.558 298.558-59.452 0-114.68-17.219-161.137-47.106 8.447.974 16.568 1.299 25.34 1.299 49.055 0 94.213-16.568 130.274-44.832-46.132-.975-84.792-31.188-98.112-72.772 6.498.974 12.995 1.624 19.818 1.624 9.421 0 18.843-1.3 27.614-3.573-48.081-9.747-84.143-51.98-84.143-102.985v-1.299c13.969 7.797 30.214 12.67 47.431 13.319-28.264-18.843-46.781-51.005-46.781-87.391 0-19.492 5.197-37.36 14.294-52.954 51.655 63.675 129.3 105.258 216.365 109.807-1.624-7.797-2.599-15.918-2.599-24.04 0-57.828 46.782-104.934 104.934-104.934 30.213 0 57.502 12.67 76.67 33.137 23.715-4.548 46.456-13.32 66.599-25.34-7.798 24.366-24.366 44.833-46.132 57.827 21.117-2.273 41.584-8.122 60.426-16.243-14.292 20.791-32.161 39.308-52.628 54.253z"
      transform="translate(27 564) scale(0.05)" fill="#004c34" />
    <path
      d="M4.152-5.5h-1.6V0H1.284V-5.5H.192v-.6l1.092-.4V-6.9a2.3,2.3,0,0,1,.57-1.758,2.267,2.267,0,0,1,1.59-.522,3.8,3.8,0,0,1,.768.072,4.682,4.682,0,0,1,.588.156l-.324.972q-.2-.06-.456-.114A2.456,2.456,0,0,0,3.5-8.148q-.948,0-.948,1.26v.42h1.6ZM10.98-3.24a3.476,3.476,0,0,1-.828,2.484A2.925,2.925,0,0,1,7.92.12,3.06,3.06,0,0,1,6.366-.27,2.73,2.73,0,0,1,5.3-1.41a3.929,3.929,0,0,1-.39-1.83,3.486,3.486,0,0,1,.816-2.478,2.912,2.912,0,0,1,2.232-.87,3.084,3.084,0,0,1,1.566.39A2.738,2.738,0,0,1,10.59-5.064,3.892,3.892,0,0,1,10.98-3.24Zm-4.764,0a3.015,3.015,0,0,0,.414,1.7,1.473,1.473,0,0,0,1.314.612,1.473,1.473,0,0,0,1.314-.612,3.015,3.015,0,0,0,.414-1.7,2.949,2.949,0,0,0-.414-1.7,1.5,1.5,0,0,0-1.326-.594,1.473,1.473,0,0,0-1.308.594A2.983,2.983,0,0,0,6.216-3.24ZM13.86,0H12.588V-9.12H13.86Zm3.264,0H15.852V-9.12h1.272Zm7.692-3.24a3.476,3.476,0,0,1-.828,2.484A2.925,2.925,0,0,1,21.756.12,3.06,3.06,0,0,1,20.2-.27a2.73,2.73,0,0,1-1.068-1.14,3.929,3.929,0,0,1-.39-1.83,3.486,3.486,0,0,1,.816-2.478,2.912,2.912,0,0,1,2.232-.87,3.084,3.084,0,0,1,1.566.39,2.738,2.738,0,0,1,1.068,1.134A3.892,3.892,0,0,1,24.816-3.24Zm-4.764,0a3.015,3.015,0,0,0,.414,1.7,1.473,1.473,0,0,0,1.314.612,1.473,1.473,0,0,0,1.314-.612,3.015,3.015,0,0,0,.414-1.7,2.949,2.949,0,0,0-.414-1.7,1.5,1.5,0,0,0-1.326-.594,1.473,1.473,0,0,0-1.308.594A2.983,2.983,0,0,0,20.052-3.24ZM31.476-.012,30.552-3.24l-.192-.714q-.108-.4-.192-.768t-.132-.57h-.048q-.036.2-.12.57t-.186.768q-.1.4-.2.726l-.96,3.216H27.108L25.32-6.48h1.3l.84,3.276q.132.5.246,1.074t.162.918h.048q.036-.2.1-.546t.144-.678q.078-.336.15-.552L29.34-6.48h1.392L31.74-2.988q.072.24.156.57t.15.654q.066.324.09.54h.048q.024-.192.084-.528t.15-.72q.09-.384.174-.732l.864-3.276H34.74L32.928-.012Zm13.08-6.456V0h-1.02l-.18-.852H43.3a1.833,1.833,0,0,1-.864.738A2.952,2.952,0,0,1,41.268.12a2.465,2.465,0,0,1-1.74-.558,2.35,2.35,0,0,1-.6-1.794V-6.468h1.284v4.044A1.7,1.7,0,0,0,40.53-1.3a1.232,1.232,0,0,0,.99.372,1.53,1.53,0,0,0,1.38-.582,3.066,3.066,0,0,0,.384-1.686V-6.468Zm6.288,4.644a1.669,1.669,0,0,1-.69,1.452A3.3,3.3,0,0,1,48.216.12a6.134,6.134,0,0,1-1.17-.1,3.51,3.51,0,0,1-.894-.3V-1.392a6.084,6.084,0,0,0,.99.366,4.051,4.051,0,0,0,1.11.162,1.821,1.821,0,0,0,1.038-.228.716.716,0,0,0,.318-.612.671.671,0,0,0-.12-.39,1.349,1.349,0,0,0-.45-.36,7.381,7.381,0,0,0-.966-.426,7.058,7.058,0,0,1-1.05-.492,1.947,1.947,0,0,1-.654-.6,1.567,1.567,0,0,1-.228-.876,1.456,1.456,0,0,1,.678-1.29,3.2,3.2,0,0,1,1.794-.45,4.944,4.944,0,0,1,1.11.12,5.686,5.686,0,0,1,1.014.336l-.42.972a7.137,7.137,0,0,0-.864-.306,3.282,3.282,0,0,0-.9-.126q-1.176,0-1.176.684a.6.6,0,0,0,.138.4,1.453,1.453,0,0,0,.48.336q.342.168.954.408a7.36,7.36,0,0,1,1.014.474,1.893,1.893,0,0,1,.654.594A1.567,1.567,0,0,1,50.844-1.824Z"
      transform="translate(15 621)" fill="#004c34" />
  </g>
</svg>