<svg xmlns="http://www.w3.org/2000/svg" width="550" height="80" viewBox="0 0 550 80"><g transform="translate(-685 -9035.543)"><path d="M35,1A33.971,33.971,0,0,0,1,35V45A33.971,33.971,0,0,0,35,79H515a33.971,33.971,0,0,0,34-34V35A33.971,33.971,0,0,0,515,1H35m0-1H515a35,35,0,0,1,35,35V45a35,35,0,0,1-35,35H35A35,35,0,0,1,0,45V35A35,35,0,0,1,35,0Z" transform="translate(685 9035.543)" fill="#004c34"/><g transform="translate(-10.622 1690.273)"><path d="M-99.316-26.895a6.8,6.8,0,0,1,2.988,1.266,2.832,2.832,0,0,1,1.336,2.145,1.289,1.289,0,0,1-.334.9,1.108,1.108,0,0,1-.861.369,1.366,1.366,0,0,1-1.213-.826,15.256,15.256,0,0,0-2.268-3.164q-.4-.4-.4-.475a.239.239,0,0,1,.176-.229,2.157,2.157,0,0,1,.3-.018A.818.818,0,0,1-99.316-26.895Zm2.883-2.268a8.04,8.04,0,0,1,3.41,1.125,2.309,2.309,0,0,1,1.3,1.828,1.415,1.415,0,0,1-.369,1.02,1.012,1.012,0,0,1-.738.316,1.482,1.482,0,0,1-1.336-.791,10.044,10.044,0,0,0-2.514-2.83q-.439-.316-.439-.422a.254.254,0,0,1,.105-.229.708.708,0,0,1,.281-.053A2.11,2.11,0,0,1-96.434-29.162Zm-20.285,4.289q.158,0,.4.316,1.125,1.512,5.66,1.512a20.6,20.6,0,0,0,6.082-1,4.728,4.728,0,0,1,1.336-.176,5.669,5.669,0,0,1,1.477.176q1.74.475,1.793,1.617a1.3,1.3,0,0,1-.967,1.371,17.483,17.483,0,0,1-2.391.316,28.9,28.9,0,0,0-5.326.984,26.634,26.634,0,0,0-4.676,1.969,8.65,8.65,0,0,1-1.16.58q-.246,0-.246-.211a20.977,20.977,0,0,1,3.357-2.918,7.2,7.2,0,0,1-3.937-1.406,4.9,4.9,0,0,1-1.248-1.529A2.836,2.836,0,0,1-117-24.521Q-117-24.873-116.719-24.873Zm-.193,11.549q.176,0,.176.281a1.454,1.454,0,0,1-.105.545,8.772,8.772,0,0,0-.615,3.3,3.491,3.491,0,0,0,1.916,3.3,14.929,14.929,0,0,0,6.979,1.3,25.348,25.348,0,0,0,6.328-.738,10.069,10.069,0,0,1,2.268-.281,3.217,3.217,0,0,1,2.3.738,1.552,1.552,0,0,1,.545,1.16A1.621,1.621,0,0,1-97.8-2.5a3.007,3.007,0,0,1-1.441.65,33.51,33.51,0,0,1-3.709.475q-2.2.176-4.641.176a17.774,17.774,0,0,1-6.8-1.2A7.659,7.659,0,0,1-117.756-4.9a5.7,5.7,0,0,1-1.072-3.639,8.406,8.406,0,0,1,1.477-4.465Q-117.141-13.324-116.912-13.324Zm46.143-3.41h9.229A8.953,8.953,0,0,1-59.2-18.527q.387,0,2.268,1.793.932.932.932,1.3a.664.664,0,0,1-.387.668,4.679,4.679,0,0,1-1.371.229,1.358,1.358,0,0,0-.721.316,29.445,29.445,0,0,1-7.436,4.395h-.053q-.281,0-.281-.369a.143.143,0,0,1,.035-.105A21.5,21.5,0,0,0-61.4-15.908h-9v8l.105,6.979a3.658,3.658,0,0,1-.58,2.092Q-71.754,2.6-74.6,2.6a1.341,1.341,0,0,1-.809-.158,1.477,1.477,0,0,1-.3-.738A2.533,2.533,0,0,0-77.186.035a13.67,13.67,0,0,0-3.006-.967q-.123-.035-.123-.3,0-.281.123-.281,3.867.229,5.783.229a.513.513,0,0,0,.58-.58V-15.908H-85.061a12.083,12.083,0,0,0-2.479.281l-.4-1.389a15.972,15.972,0,0,0,2.883.281h13.184q-.527-.193-1.582-2.549a12.132,12.132,0,0,0-3.85-4.658.1.1,0,0,1-.053-.088q0-.281.264-.229a16.84,16.84,0,0,1,6.328,2.883,31.268,31.268,0,0,0,5.59-5.555H-81.316a12.48,12.48,0,0,0-2.531.281l-.387-1.389a15.972,15.972,0,0,0,2.883.281H-65q1.74-1.652,2.092-1.652a7.862,7.862,0,0,1,2.338,1.652q.967.826.967,1.2,0,.668-1.9.967a43.3,43.3,0,0,1-8.543,4.939,2.752,2.752,0,0,1,.686,1.793A1.959,1.959,0,0,1-70.77-16.734Zm22.236,1.793a52.427,52.427,0,0,0,4.219-6.8,22.188,22.188,0,0,0,1.652-3.709q4.025,1.846,4.025,2.408,0,.51-1.178.51h-.211q-2.988,3.5-4.008,4.535-.984.984-3.375,3.059,2.039,0,6.152-.141a9.257,9.257,0,0,0-1.564-3.059.156.156,0,0,1-.018-.07q0-.193.264-.193a.2.2,0,0,1,.088.018q4.535,2.461,4.535,5.1a2.452,2.452,0,0,1-.51,1.617,1.434,1.434,0,0,1-1.107.51,1.108,1.108,0,0,1-1.055-.527,5.473,5.473,0,0,1-.457-2.127l-.035-.4q-.791.281-2.373.721v4.975l.105,10.248q0,1.371-1.9,1.371-1.441,0-1.441-1.107.211-3.287.211-7.822v-6.943q-1.3.281-3.814.686-.352,1-.791,1-.352,0-.65-.879-.264-.844-.686-3.041.932.07,1.916.07Zm14.7-6.838A21.924,21.924,0,0,1-38.6-16.207a.189.189,0,0,1-.105.035q-.316,0-.316-.229a.135.135,0,0,1,.018-.053,34.417,34.417,0,0,0,3.551-8.93,25.127,25.127,0,0,0,.861-4.641q4.922,1.266,4.922,1.916,0,.615-1.424.861a36.347,36.347,0,0,1-2.232,4.641H-24.8q1.582-1.863,1.986-1.863t2.039,1.512q.861.756.861,1.143,0,.281-1.107,1.072-.211,7.084-.615,11.074a56.23,56.23,0,0,1-1.248,7.752,5.51,5.51,0,0,1-2.3,3.5,5.3,5.3,0,0,1-3.023.826,1.047,1.047,0,0,1-.756-.193,2.048,2.048,0,0,1-.281-.809A2.64,2.64,0,0,0-30.428-.352a12.39,12.39,0,0,0-2.848-1.09q-.141-.035-.141-.3,0-.281.141-.281,3.146.281,4.166.281a6.041,6.041,0,0,0,2.32-.281,1.345,1.345,0,0,0,.6-.879q1.547-5.59,1.758-18.879Zm-14.713-1.986a36.463,36.463,0,0,0,1.582-4.271,16.976,16.976,0,0,0,.527-2.2Q-42.17-28.723-42.17-28q0,.6-1.424.6a46.877,46.877,0,0,1-4.1,4.148,3.269,3.269,0,0,1,1.705,2.725,2.29,2.29,0,0,1-.527,1.6,1.514,1.514,0,0,1-1.16.492,1.369,1.369,0,0,1-1.16-.422,7.276,7.276,0,0,1-.7-1.846,8.667,8.667,0,0,0-2.373-3.885.118.118,0,0,1-.053-.105q0-.264.264-.211A21.06,21.06,0,0,1-48.551-23.766Zm19.564,12.6a2.548,2.548,0,0,1-.615,1.74,1.749,1.749,0,0,1-1.354.633q-1.125,0-1.441-1.582a25.375,25.375,0,0,0-1.336-3.867,8.347,8.347,0,0,0-1.547-2.285.217.217,0,0,1-.035-.123.186.186,0,0,1,.211-.211h.035a10.233,10.233,0,0,1,4.535,2.549A4.5,4.5,0,0,1-28.986-11.162ZM-38.021-4.57a2.566,2.566,0,0,1-.545,1.705,1.549,1.549,0,0,1-1.213.563,1.085,1.085,0,0,1-1.055-.668,7.474,7.474,0,0,1-.492-2.285,11.079,11.079,0,0,0-1.6-4.869.1.1,0,0,1-.035-.07q0-.176.211-.176a.189.189,0,0,1,.105.035Q-38.021-7.471-38.021-4.57ZM-46.74-8.719q0,.475-1.02.686Q-49.834-2.092-52.7.475A.143.143,0,0,1-52.8.51a.2.2,0,0,1-.229-.229.135.135,0,0,1,.018-.053,28.65,28.65,0,0,0,2.021-6.785,17.014,17.014,0,0,0,.3-3.2q0-.246.018-.58,2.76.809,3.428,1.107Q-46.74-9-46.74-8.719ZM8-6.521a14.955,14.955,0,0,1,5.15,3.006A2.331,2.331,0,0,1,13.834-1.9a1.536,1.536,0,0,1-.545,1.213,1.384,1.384,0,0,1-.967.369,1.874,1.874,0,0,1-1.3-.65A18.821,18.821,0,0,0,7.893-3.639,3.625,3.625,0,0,1,6.135-.58,6.73,6.73,0,0,1,2.32.439a8.037,8.037,0,0,1-3.85-.826A3.862,3.862,0,0,1-3.006-1.793a3.323,3.323,0,0,1-.51-1.74A3.348,3.348,0,0,1-2.848-5.52a4.026,4.026,0,0,1,1.16-1.072A7.785,7.785,0,0,1,2.25-7.453a14.914,14.914,0,0,1,3.041.369L5.15-16.559A37.2,37.2,0,0,1,.3-16.242a5.183,5.183,0,0,1-2.443-.545A5.345,5.345,0,0,1-3.99-18.4a1.183,1.183,0,0,1-.246-.58q0-.281.211-.281a2.6,2.6,0,0,1,.686.281,6.511,6.511,0,0,0,3.094.65,34.3,34.3,0,0,0,5.432-.6q-.053-4.9-.141-5.7a1.194,1.194,0,0,0-1.143-1.2,6.675,6.675,0,0,0-.756-.035l-.439-.035a.249.249,0,0,1-.281-.281q0-.352.9-.9A2.655,2.655,0,0,1,4.8-27.545a5.186,5.186,0,0,1,2.514.65q1.652.879,1.652,1.758a1.117,1.117,0,0,1-.316.826,2.538,2.538,0,0,0-.58,1.371,26.3,26.3,0,0,0-.316,3.393q.422-.088,1.318-.369a2.286,2.286,0,0,0,.756-.457,2.252,2.252,0,0,1,1.406-.4,2.883,2.883,0,0,1,1.828.492,1.115,1.115,0,0,1,.439.879,1.436,1.436,0,0,1-1.072,1.371,31.173,31.173,0,0,1-4.781,1.2Q7.646-12.059,8-6.521ZM5.15-4.9a8.945,8.945,0,0,0-3.691-.9,5.994,5.994,0,0,0-2.566.4A1.78,1.78,0,0,0-2.25-3.779,1.783,1.783,0,0,0-1.318-2.2a5.534,5.534,0,0,0,2.707.475,4.441,4.441,0,0,0,2.689-.686A2.827,2.827,0,0,0,5.045-3.92,4.686,4.686,0,0,0,5.15-4.9ZM-6.732-12.322a5.146,5.146,0,0,1-.141.65A65.879,65.879,0,0,0-8.736-4.535,7.582,7.582,0,0,0-8.807-3.5v.51a4.421,4.421,0,0,0,.053.6q.035.387.053.527A7.481,7.481,0,0,1-8.561-.51a1.135,1.135,0,0,1-.4.87,1.4,1.4,0,0,1-.976.36q-1.213,0-1.934-1.617a19.926,19.926,0,0,1-1.2-7.682,52.613,52.613,0,0,1,1.652-12.3,18.665,18.665,0,0,0,.58-3.252,4.455,4.455,0,0,0-.844-2.514,1.556,1.556,0,0,1-.281-.58q0-.211.58-.211a2.871,2.871,0,0,1,1.916,1Q-7.33-24.293-7.33-22.5a1.516,1.516,0,0,1-.545,1.16,6.218,6.218,0,0,0-1.213,2.479,27.667,27.667,0,0,0-1.846,9.3,13.938,13.938,0,0,0,.246,2.918q.088.316.334.316a.317.317,0,0,0,.281-.211q1.406-2.848,2.584-5.66.211-.51.475-.475A.318.318,0,0,1-6.732-12.322ZM27.633-25.207q.158,0,.4.334,1.125,1.512,5.66,1.512a20.273,20.273,0,0,0,6.082-1.02,4.728,4.728,0,0,1,1.336-.176,5.669,5.669,0,0,1,1.477.176q1.74.475,1.793,1.635a1.293,1.293,0,0,1-.967,1.354,14.629,14.629,0,0,1-2.391.334,28.14,28.14,0,0,0-5.326.967,25.979,25.979,0,0,0-4.676,1.986,8.65,8.65,0,0,1-1.16.58q-.246,0-.246-.211a21.141,21.141,0,0,1,3.357-2.936,7.271,7.271,0,0,1-3.937-1.406,4.9,4.9,0,0,1-1.248-1.529,2.836,2.836,0,0,1-.439-1.248Q27.352-25.207,27.633-25.207Zm-.193,11.566q.176,0,.176.281a1.454,1.454,0,0,1-.105.545,8.772,8.772,0,0,0-.615,3.3,3.468,3.468,0,0,0,1.916,3.3,14.929,14.929,0,0,0,6.979,1.3,24.788,24.788,0,0,0,6.328-.756,10.232,10.232,0,0,1,2.268-.281,3.217,3.217,0,0,1,2.3.738,1.57,1.57,0,0,1,.545,1.178,1.61,1.61,0,0,1-.686,1.2,2.926,2.926,0,0,1-1.441.668,34.259,34.259,0,0,1-3.709.475q-2.2.176-4.641.176a17.774,17.774,0,0,1-6.8-1.2A7.659,7.659,0,0,1,26.6-5.221a5.7,5.7,0,0,1-1.072-3.639A8.406,8.406,0,0,1,27-13.324Q27.211-13.641,27.439-13.641Zm39.445,3.164q5.309-3.674,10.143-3.674a7.135,7.135,0,0,1,2.742.475,8.93,8.93,0,0,1,1.9,1.107A5.446,5.446,0,0,1,83.9-7.893q0,3.762-3.885,6.275A20.773,20.773,0,0,1,73.582.9a33.085,33.085,0,0,1-7.383.826q-.756,0-.756-.352a.409.409,0,0,1,.211-.4q.053-.018,1.02-.176a24.935,24.935,0,0,0,9.773-3.533q3.885-2.672,3.885-5.906a3.97,3.97,0,0,0-1.037-2.936,4.254,4.254,0,0,0-3.146-1.2q-3.357,0-6.68,3.164a10.508,10.508,0,0,0-2.5,3.568Q66.5-4.834,65.654-4.834q-.861,0-1.477-1.16a4.705,4.705,0,0,1-.51-2.285,2.129,2.129,0,0,1,.193-.861q.281-.6.352-.809a13.891,13.891,0,0,0,.475-1.582q.457-1.881,1.23-6.5-3.164.352-3.48.352a3.521,3.521,0,0,1-2.461-.861,6.373,6.373,0,0,1-1.687-2.145.584.584,0,0,1-.053-.229q0-.352.3-.352a1.044,1.044,0,0,1,.475.246,6.218,6.218,0,0,0,1.67.826,6.576,6.576,0,0,0,1.529.141,23.778,23.778,0,0,0,4.148-.58,30.319,30.319,0,0,0,.457-4.57,1.964,1.964,0,0,0-.229-1.125,1.381,1.381,0,0,0-.6-.387,7.566,7.566,0,0,0-1.318-.316q-.281,0-.281-.211,0-.281.475-.58a3.041,3.041,0,0,1,1.688-.65,6.713,6.713,0,0,1,3.322,1.2,1.688,1.688,0,0,1,.9,1.512,1.568,1.568,0,0,1-.58,1.072,3.936,3.936,0,0,0-.633,1.371q-.246.773-.545,2a10.877,10.877,0,0,0,3.463-1.389,2.83,2.83,0,0,1,1.758-.545,5,5,0,0,1,1.652.281,1.293,1.293,0,0,1,.9,1.3,1.072,1.072,0,0,1-.4.9,4.818,4.818,0,0,1-1.424.615q-2.338.738-6.557,1.617Q67.359-13.254,66.885-10.477Zm39.059-2.479a14.34,14.34,0,0,1,6.521-1.951,7.91,7.91,0,0,1,6.012,2.162,6.444,6.444,0,0,1,1.723,4.57,6.489,6.489,0,0,1-1.775,4.395,11.493,11.493,0,0,1-4.271,2.918,35.464,35.464,0,0,1-12.059,2.2h-.158q-.668,0-.668-.4,0-.281.756-.387a25.717,25.717,0,0,0,9.756-3.217,10.282,10.282,0,0,0,3.762-3.533,6.244,6.244,0,0,0,.949-3.252,4.058,4.058,0,0,0-1.266-3.146,5.18,5.18,0,0,0-3.516-1.143,7.36,7.36,0,0,0-3.8,1.318,19.713,19.713,0,0,0-4.271,3.8,7.965,7.965,0,0,0-1.916,3.2q-.3,1.037-1.037,1.037A2.525,2.525,0,0,1,98.6-5.8,4.836,4.836,0,0,1,97.77-8.49q0-1.248.826-7.1a19.575,19.575,0,0,0,.246-2.479V-19.2a2.745,2.745,0,0,1,1.406-2.3,18.838,18.838,0,0,1,4.5-1.863,8.906,8.906,0,0,1-2.373-1.916,5.288,5.288,0,0,1-1.512-3.375q0-.721.211-.721.158,0,.439.51,1.072,1.775,5.5,2.953a4.666,4.666,0,0,1,2.18,1.178,2.779,2.779,0,0,1,.879,1.705v.141a1.613,1.613,0,0,1-.4,1.107,1.235,1.235,0,0,1-.967.439,6.509,6.509,0,0,1-1.23-.105,10.269,10.269,0,0,0-1.547-.211,7.37,7.37,0,0,0-.879-.053,10.926,10.926,0,0,0-3.568.65,1.765,1.765,0,0,0-.914.686,1.07,1.07,0,0,0-.211.58,3.16,3.16,0,0,0,.141.9,11.347,11.347,0,0,1,.615,2.549,5.892,5.892,0,0,1-.123,1.037q-.141.7-.158.844a43.8,43.8,0,0,0-.352,4.57q0,.246.193.246a.764.764,0,0,0,.4-.176q.193-.141.563-.4l.281-.193q.105-.07.176-.123A29.632,29.632,0,0,1,105.943-12.955Z" transform="translate(949.622 7397.27)" fill="#00724e"/><g transform="translate(1043.374 7323.205)"><path d="M47.053,82.475H46v22.587H68.587v-1.053H47.053Z" transform="translate(0 -31.672)" fill="#00724e"/><path d="M82.475,46V68.587h22.587V46Zm21.534,21.534H83.528V47.053h20.48Z" transform="translate(-31.672)" fill="#00724e"/><path d="M125.748,97.385l9.972-9.972v6.753h1.054V85.615h-8.551v1.053h6.753L125,96.64Z" transform="translate(-68.6 -34.399)" fill="#00724e"/></g></g></g></svg>