<svg xmlns="http://www.w3.org/2000/svg" width="40.4" height="53.16" viewBox="0 0 40.4 53.16"><g transform="translate(-104.896 -70)"><g transform="translate(1 40.21)"><rect width="18" height="5" rx="2.5" transform="translate(115 29.79)" fill="#bfa84e"/><rect width="18" height="5" rx="2.5" transform="translate(115 42.29)" fill="#bfa84e"/><rect width="18" height="5" rx="2.5" transform="translate(115 54.79)" fill="#bfa84e"/></g><path d="M24.936,17,21.176,6.984h-.064q.048.5.08,1.336t.032,1.752V17H19.9V5.576h2.128l3.52,9.36h.064l3.584-9.36H31.3V17H29.88V9.976q0-.832.04-1.648T29.992,7h-.064L26.12,17ZM37.528,8.264a3.6,3.6,0,0,1,1.888.48A3.137,3.137,0,0,1,40.64,10.1a4.615,4.615,0,0,1,.424,2.04v.848H35.192a3.236,3.236,0,0,0,.744,2.216,2.6,2.6,0,0,0,1.992.76,6.222,6.222,0,0,0,1.448-.152,8.166,8.166,0,0,0,1.3-.44V16.6a6.679,6.679,0,0,1-1.3.424,7.4,7.4,0,0,1-1.52.136,4.515,4.515,0,0,1-2.16-.5,3.475,3.475,0,0,1-1.448-1.472,5.091,5.091,0,0,1-.52-2.416,5.658,5.658,0,0,1,.472-2.416,3.587,3.587,0,0,1,1.328-1.552A3.634,3.634,0,0,1,37.528,8.264Zm-.016,1.152a2.035,2.035,0,0,0-1.592.648,3.055,3.055,0,0,0-.7,1.8h4.368A3.006,3.006,0,0,0,39.08,10.1,1.81,1.81,0,0,0,37.512,9.416Zm9.856-1.152a3.229,3.229,0,0,1,2.32.752,3.2,3.2,0,0,1,.784,2.4V17H49.08V11.512q0-2.064-1.92-2.064a2.211,2.211,0,0,0-1.968.8,4.086,4.086,0,0,0-.544,2.3V17H43.24V8.424h1.136l.208,1.168h.08a2.537,2.537,0,0,1,1.152-1A3.77,3.77,0,0,1,47.368,8.264Zm12.928.16V17H59.144l-.208-1.136h-.064a2.443,2.443,0,0,1-1.152.984,3.976,3.976,0,0,1-1.568.312,3.277,3.277,0,0,1-2.336-.744,3.148,3.148,0,0,1-.784-2.376V8.424h1.424v5.52q0,2.048,1.9,2.048a2.233,2.233,0,0,0,1.976-.8,4.039,4.039,0,0,0,.552-2.3V8.424Z" transform="translate(85 106)" fill="#bfa84e"/></g></svg>