<svg xmlns="http://www.w3.org/2000/svg" xmlns:xlink="http://www.w3.org/1999/xlink" width="1198.936" height="68.33" viewBox="0 0 1198.936 68.33"><defs><clipPath id="a"><rect width="1198.936" height="68.33" fill="none"/></clipPath></defs><g clip-path="url(#a)"><g transform="translate(23.674 -7642.679)"><path d="M3.073,4.268,25.515-3.9,21.279,192.255,0,200Z" transform="translate(44.73 7646.344) rotate(20)" fill="#f7f2ee"/></g><g transform="translate(71.674 -7642.679)"><path d="M3.073,4.268,25.515-3.9,21.279,192.255,0,200Z" transform="translate(44.73 7646.344) rotate(20)" fill="#f7f2ee"/></g><g transform="translate(119.674 -7642.679)"><path d="M3.073,4.268,25.515-3.9,21.279,192.255,0,200Z" transform="translate(44.73 7646.344) rotate(20)" fill="#f7f2ee"/></g><g transform="translate(167.674 -7642.679)"><path d="M3.073,4.268,25.515-3.9,21.279,192.255,0,200Z" transform="translate(44.73 7646.344) rotate(20)" fill="#f7f2ee"/></g><g transform="translate(215.674 -7642.679)"><path d="M3.073,4.268,25.515-3.9,21.279,192.255,0,200Z" transform="translate(44.73 7646.344) rotate(20)" fill="#f7f2ee"/></g><g transform="translate(263.674 -7642.679)"><path d="M3.073,4.268,25.515-3.9,21.279,192.255,0,200Z" transform="translate(44.73 7646.344) rotate(20)" fill="#f7f2ee"/></g><g transform="translate(311.674 -7642.679)"><path d="M3.073,4.268,25.515-3.9,21.279,192.255,0,200Z" transform="translate(44.73 7646.344) rotate(20)" fill="#f7f2ee"/></g><g transform="translate(359.674 -7642.679)"><path d="M3.073,4.268,25.515-3.9,21.279,192.255,0,200Z" transform="translate(44.73 7646.344) rotate(20)" fill="#f7f2ee"/></g><g transform="translate(407.674 -7642.679)"><path d="M3.073,4.268,25.515-3.9,21.279,192.255,0,200Z" transform="translate(44.73 7646.344) rotate(20)" fill="#f7f2ee"/></g><g transform="translate(455.674 -7642.679)"><path d="M3.073,4.268,25.515-3.9,21.279,192.255,0,200Z" transform="translate(44.73 7646.344) rotate(20)" fill="#f7f2ee"/></g><g transform="translate(503.674 -7642.679)"><path d="M3.073,4.268,25.515-3.9,21.279,192.255,0,200Z" transform="translate(44.73 7646.344) rotate(20)" fill="#f7f2ee"/></g><g transform="translate(551.674 -7642.679)"><path d="M3.073,4.268,25.515-3.9,21.279,192.255,0,200Z" transform="translate(44.73 7646.344) rotate(20)" fill="#f7f2ee"/></g><g transform="translate(599.674 -7642.679)"><path d="M3.073,4.268,25.515-3.9,21.279,192.255,0,200Z" transform="translate(44.73 7646.344) rotate(20)" fill="#f7f2ee"/></g><g transform="translate(647.674 -7642.679)"><path d="M3.073,4.268,25.515-3.9,21.279,192.255,0,200Z" transform="translate(44.73 7646.344) rotate(20)" fill="#f7f2ee"/></g><g transform="translate(695.674 -7642.679)"><path d="M3.073,4.268,25.515-3.9,21.279,192.255,0,200Z" transform="translate(44.73 7646.344) rotate(20)" fill="#f7f2ee"/></g><g transform="translate(743.674 -7642.679)"><path d="M3.073,4.268,25.515-3.9,21.279,192.255,0,200Z" transform="translate(44.73 7646.344) rotate(20)" fill="#f7f2ee"/></g><g transform="translate(791.674 -7642.679)"><path d="M3.073,4.268,25.515-3.9,21.279,192.255,0,200Z" transform="translate(44.73 7646.344) rotate(20)" fill="#f7f2ee"/></g><g transform="translate(839.674 -7642.679)"><path d="M3.073,4.268,25.515-3.9,21.279,192.255,0,200Z" transform="translate(44.73 7646.344) rotate(20)" fill="#f7f2ee"/></g><g transform="translate(887.674 -7642.679)"><path d="M3.073,4.268,25.515-3.9,21.279,192.255,0,200Z" transform="translate(44.73 7646.344) rotate(20)" fill="#f7f2ee"/></g><g transform="translate(935.674 -7642.679)"><path d="M3.073,4.268,25.515-3.9,21.279,192.255,0,200Z" transform="translate(44.73 7646.344) rotate(20)" fill="#f7f2ee"/></g><g transform="translate(983.674 -7642.679)"><path d="M3.073,4.268,25.515-3.9,21.279,192.255,0,200Z" transform="translate(44.73 7646.344) rotate(20)" fill="#f7f2ee"/></g><g transform="translate(1031.674 -7642.679)"><path d="M3.073,4.268,25.515-3.9,21.279,192.255,0,200Z" transform="translate(44.73 7646.344) rotate(20)" fill="#f7f2ee"/></g><g transform="translate(1079.674 -7642.679)"><path d="M3.073,4.268,25.515-3.9,21.279,192.255,0,200Z" transform="translate(44.73 7646.344) rotate(20)" fill="#f7f2ee"/></g><g transform="translate(1127.674 -7642.679)"><path d="M3.073,4.268,25.515-3.9,21.279,192.255,0,200Z" transform="translate(44.73 7646.344) rotate(20)" fill="#f7f2ee"/></g><g transform="translate(1175.674 -7642.679)"><path d="M3.073,4.268,25.515-3.9,21.279,192.255,0,200Z" transform="translate(44.73 7646.344) rotate(20)" fill="#f7f2ee"/></g></g></svg>