<svg xmlns="http://www.w3.org/2000/svg" xmlns:xlink="http://www.w3.org/1999/xlink" width="2008.714" height="200.33" viewBox="0 0 2008.714 200.33"><defs><clipPath id="a"><rect width="2008.714" height="200.33" fill="none"/></clipPath></defs><g clip-path="url(#a)"><g transform="translate(23.674 -7642.679)"><path d="M3.073,4.268,25.515-3.9,21.279,192.255,0,200Z" transform="translate(44.73 7646.344) rotate(20)" fill="#f7f2ee"/></g><g transform="translate(80.674 -7642.679)"><path d="M3.073,4.268,25.515-3.9,21.279,192.255,0,200Z" transform="translate(44.73 7646.344) rotate(20)" fill="#f7f2ee"/></g><g transform="translate(137.674 -7642.679)"><path d="M3.073,4.268,25.515-3.9,21.279,192.255,0,200Z" transform="translate(44.73 7646.344) rotate(20)" fill="#f7f2ee"/></g><g transform="translate(194.674 -7642.679)"><path d="M3.073,4.268,25.515-3.9,21.279,192.255,0,200Z" transform="translate(44.73 7646.344) rotate(20)" fill="#f7f2ee"/></g><g transform="translate(251.674 -7642.679)"><path d="M3.073,4.268,25.515-3.9,21.279,192.255,0,200Z" transform="translate(44.73 7646.344) rotate(20)" fill="#f7f2ee"/></g><g transform="translate(308.674 -7642.679)"><path d="M3.073,4.268,25.515-3.9,21.279,192.255,0,200Z" transform="translate(44.73 7646.344) rotate(20)" fill="#f7f2ee"/></g><g transform="translate(365.674 -7642.679)"><path d="M3.073,4.268,25.515-3.9,21.279,192.255,0,200Z" transform="translate(44.73 7646.344) rotate(20)" fill="#f7f2ee"/></g><g transform="translate(422.674 -7642.679)"><path d="M3.073,4.268,25.515-3.9,21.279,192.255,0,200Z" transform="translate(44.73 7646.344) rotate(20)" fill="#f7f2ee"/></g><g transform="translate(479.674 -7642.679)"><path d="M3.073,4.268,25.515-3.9,21.279,192.255,0,200Z" transform="translate(44.73 7646.344) rotate(20)" fill="#f7f2ee"/></g><g transform="translate(536.674 -7642.679)"><path d="M3.073,4.268,25.515-3.9,21.279,192.255,0,200Z" transform="translate(44.73 7646.344) rotate(20)" fill="#f7f2ee"/></g><g transform="translate(593.674 -7642.679)"><path d="M3.073,4.268,25.515-3.9,21.279,192.255,0,200Z" transform="translate(44.73 7646.344) rotate(20)" fill="#f7f2ee"/></g><g transform="translate(650.674 -7642.679)"><path d="M3.073,4.268,25.515-3.9,21.279,192.255,0,200Z" transform="translate(44.73 7646.344) rotate(20)" fill="#f7f2ee"/></g><g transform="translate(707.674 -7642.679)"><path d="M3.073,4.268,25.515-3.9,21.279,192.255,0,200Z" transform="translate(44.73 7646.344) rotate(20)" fill="#f7f2ee"/></g><g transform="translate(764.674 -7642.679)"><path d="M3.073,4.268,25.515-3.9,21.279,192.255,0,200Z" transform="translate(44.73 7646.344) rotate(20)" fill="#f7f2ee"/></g><g transform="translate(821.674 -7642.679)"><path d="M3.073,4.268,25.515-3.9,21.279,192.255,0,200Z" transform="translate(44.73 7646.344) rotate(20)" fill="#f7f2ee"/></g><g transform="translate(878.674 -7642.679)"><path d="M3.073,4.268,25.515-3.9,21.279,192.255,0,200Z" transform="translate(44.73 7646.344) rotate(20)" fill="#f7f2ee"/></g><g transform="translate(935.674 -7642.679)"><path d="M3.073,4.268,25.515-3.9,21.279,192.255,0,200Z" transform="translate(44.73 7646.344) rotate(20)" fill="#f7f2ee"/></g><g transform="translate(992.674 -7642.679)"><path d="M3.073,4.268,25.515-3.9,21.279,192.255,0,200Z" transform="translate(44.73 7646.344) rotate(20)" fill="#f7f2ee"/></g><g transform="translate(1049.674 -7642.679)"><path d="M3.073,4.268,25.515-3.9,21.279,192.255,0,200Z" transform="translate(44.73 7646.344) rotate(20)" fill="#f7f2ee"/></g><g transform="translate(1106.674 -7642.679)"><path d="M3.073,4.268,25.515-3.9,21.279,192.255,0,200Z" transform="translate(44.73 7646.344) rotate(20)" fill="#f7f2ee"/></g><g transform="translate(1163.674 -7642.679)"><path d="M3.073,4.268,25.515-3.9,21.279,192.255,0,200Z" transform="translate(44.73 7646.344) rotate(20)" fill="#f7f2ee"/></g><g transform="translate(1220.674 -7642.679)"><path d="M3.073,4.268,25.515-3.9,21.279,192.255,0,200Z" transform="translate(44.73 7646.344) rotate(20)" fill="#f7f2ee"/></g><g transform="translate(1277.674 -7642.679)"><path d="M3.073,4.268,25.515-3.9,21.279,192.255,0,200Z" transform="translate(44.73 7646.344) rotate(20)" fill="#f7f2ee"/></g><g transform="translate(1334.674 -7642.679)"><path d="M3.073,4.268,25.515-3.9,21.279,192.255,0,200Z" transform="translate(44.73 7646.344) rotate(20)" fill="#f7f2ee"/></g><g transform="translate(1391.674 -7642.679)"><path d="M3.073,4.268,25.515-3.9,21.279,192.255,0,200Z" transform="translate(44.73 7646.344) rotate(20)" fill="#f7f2ee"/></g><g transform="translate(1448.674 -7642.679)"><path d="M3.073,4.268,25.515-3.9,21.279,192.255,0,200Z" transform="translate(44.73 7646.344) rotate(20)" fill="#f7f2ee"/></g><g transform="translate(1505.674 -7642.679)"><path d="M3.073,4.268,25.515-3.9,21.279,192.255,0,200Z" transform="translate(44.73 7646.344) rotate(20)" fill="#f7f2ee"/></g><g transform="translate(1562.674 -7642.679)"><path d="M3.073,4.268,25.515-3.9,21.279,192.255,0,200Z" transform="translate(44.73 7646.344) rotate(20)" fill="#f7f2ee"/></g><g transform="translate(1619.674 -7642.679)"><path d="M3.073,4.268,25.515-3.9,21.279,192.255,0,200Z" transform="translate(44.73 7646.344) rotate(20)" fill="#f7f2ee"/></g><g transform="translate(1676.674 -7642.679)"><path d="M3.073,4.268,25.515-3.9,21.279,192.255,0,200Z" transform="translate(44.73 7646.344) rotate(20)" fill="#f7f2ee"/></g><g transform="translate(1733.674 -7642.679)"><path d="M3.073,4.268,25.515-3.9,21.279,192.255,0,200Z" transform="translate(44.73 7646.344) rotate(20)" fill="#f7f2ee"/></g><g transform="translate(1790.674 -7642.679)"><path d="M3.073,4.268,25.515-3.9,21.279,192.255,0,200Z" transform="translate(44.73 7646.344) rotate(20)" fill="#f7f2ee"/></g><g transform="translate(1847.674 -7642.679)"><path d="M3.073,4.268,25.515-3.9,21.279,192.255,0,200Z" transform="translate(44.73 7646.344) rotate(20)" fill="#f7f2ee"/></g><g transform="translate(1904.674 -7642.679)"><path d="M3.073,4.268,25.515-3.9,21.279,192.255,0,200Z" transform="translate(44.73 7646.344) rotate(20)" fill="#f7f2ee"/></g><g transform="translate(1961.674 -7642.679)"><path d="M3.073,4.268,25.515-3.9,21.279,192.255,0,200Z" transform="translate(44.73 7646.344) rotate(20)" fill="#f7f2ee"/></g><g transform="translate(2018.674 -7642.679)"><path d="M3.073,4.268,25.515-3.9,21.279,192.255,0,200Z" transform="translate(44.73 7646.344) rotate(20)" fill="#f7f2ee"/></g></g></svg>