<svg xmlns="http://www.w3.org/2000/svg" width="375.839" height="78" viewBox="0 0 375.839 78"><path d="M371.28,248.478H225.545c-6.6-.964-11.646-6.153-11.646-12.435s5.048-11.471,11.646-12.435h76.616c7.648,0,13.848-5.945,13.848-13.282s-6.2-13.283-13.848-13.283H79.942c-7.649,0-13.849,5.945-13.849,13.283s6.2,13.282,13.849,13.282h82.182c6.6.964,11.644,6.153,11.644,12.435s-5.045,11.471-11.644,12.435H23.138c-7.648,0-13.848,5.946-13.848,13.283s6.2,13.283,13.848,13.283H371.28c7.649,0,13.849-5.945,13.849-13.283S378.929,248.478,371.28,248.478Z" transform="translate(-9.29 -197.044)" fill="#e6cb61"/></svg>