<svg xmlns="http://www.w3.org/2000/svg" width="86.083" height="578.719" viewBox="0 0 86.083 578.719"><g transform="translate(-78.38 -178.645)"><g transform="translate(7 -142)"><path d="M-16.611-18.6a42.355,42.355,0,0,1-3.63,4.327.167.167,0,0,1-.123.041q-.41,0-.41-.349a.084.084,0,0,1,.021-.062,47.552,47.552,0,0,0,5.742-14.335,52.37,52.37,0,0,0,1.087-6.378q5.332,1.169,5.332,2.092a.643.643,0,0,1-.328.574,6.748,6.748,0,0,1-1.148.431,40.044,40.044,0,0,1-4.225,10.131,10.167,10.167,0,0,1,2.112.451.514.514,0,0,1,.349.472q0,.513-1.087,1V1.559q0,1.764-2.133,1.764-1.8,0-1.8-1.6.246-4.594.246-11.054Zm9.926-.718h1.313q1.538-1.887,2.01-1.887T-1.21-19.77q.841.718.841,1.128,0,.615-1.107,1.169Q-2.6-9.577-4.8-5.332A11.883,11.883,0,0,0,.943-1.7,29.714,29.714,0,0,0,8.9-.841a91.689,91.689,0,0,0,10.705-.718q.144-.021.144.1a.314.314,0,0,1-.144.267A4.284,4.284,0,0,0,18.4.144a4.683,4.683,0,0,0-.39,1.538.926.926,0,0,1-.472.759,4.1,4.1,0,0,1-1.333.328q-1.087.123-5.906.123a32.441,32.441,0,0,1-8.367-.841A14.713,14.713,0,0,1-3.035-.472a12.746,12.746,0,0,1-2.81-2.974A28.162,28.162,0,0,1-12.3,3.179a.182.182,0,0,1-.082.021q-.328,0-.328-.39a.228.228,0,0,1,.021-.1,31.676,31.676,0,0,0,5.25-8.839,31.919,31.919,0,0,1-2.338-7.014,1.629,1.629,0,0,0-.677-1.046q-.369-.308-.369-.554,0-.205.677-.472a3.052,3.052,0,0,1,1-.205q.431,0,.431.328a4.681,4.681,0,0,1-.226.554,1.305,1.305,0,0,0-.082.349,4.177,4.177,0,0,0,.246,1.21A29.391,29.391,0,0,0-6.727-8.224a50.193,50.193,0,0,0,1.8-10.131H-7.137l-.123.246q-.677,1.23-1.518,1.23a2.625,2.625,0,0,1-1.538-.472,1.13,1.13,0,0,1-.554-.882,4.269,4.269,0,0,1,.492-1.292A73.957,73.957,0,0,0-6.009-29.941H-7.137a11.237,11.237,0,0,0-2.4.246l-.39-1.559a11.671,11.671,0,0,0,2.707.349h1q1.723-1.989,2.174-1.989.492,0,2.03,1.641.8.861.8,1.271,0,.574-1.477,1.21Q-4.635-23.584-6.686-19.318Zm18.58,1.559H8.326q.021.492.041,2.317.021,1.7.041,2.42h2.728Q13.1-15.34,13.617-15.34a9.135,9.135,0,0,1,2.522,1.6q1.087.9,1.087,1.251,0,.431-.554.431H8.408q0,.882.082,4.491h3.732q2.194-2.522,2.707-2.522a9.181,9.181,0,0,1,2.6,1.764q1.128.9,1.128,1.313t-.554.41H8.49q.041,1.395.041,3.076,0,1.8-2.174,1.8-1.8,0-1.8-1.518L4.594-6.6H.677a18.848,18.848,0,0,0-2.687.246L-2.461-7.9a15.424,15.424,0,0,0,3.056.328h4.04q0-.205.082-4.491H1.559a16.149,16.149,0,0,0-2.481.246l-.451-1.559a13.464,13.464,0,0,0,2.933.349H4.717q.041-.964.041-4.737H2.707a10.656,10.656,0,0,0-2.276.287l-.472-1.559a14.012,14.012,0,0,0,2.646.287H4.758q.041-1.579.041-4.778H.882a20.537,20.537,0,0,0-2.851.246l-.451-1.538a18.34,18.34,0,0,0,3.3.328H4.8v-4.778H2.666a11.408,11.408,0,0,0-2.6.328L-.41-30.577a14.443,14.443,0,0,0,2.974.328H4.758q0-2.6-.205-5.106A35.165,35.165,0,0,1,8.8-34.74q.7.226.7.718,0,.41-1.21,1v2.769h3.1q1.538-2.01,2.03-2.01a6.67,6.67,0,0,1,2.3,1.559q.964.861.964,1.251,0,.328-1.292,1.395v3.568h.082q1.21-2.051,1.8-2.051.41,0,1.764,1.456a2.163,2.163,0,0,1,.677,1.148q0,.41-.554.41H15.381q.021,1.6.082,3.691.041,1.477.041,1.764,0,1.723-1.928,1.723Q11.956-16.345,11.895-17.76Zm0-.984v-4.778H8.285q0,2.892.041,4.778ZM8.285-29.265v4.778h3.609v-4.778Zm.574,68.42.164.123a22.885,22.885,0,0,0,9.905,3.835q.123.021.123.205,0,.287-.205.328a3.009,3.009,0,0,0-2.4,2.4,6.132,6.132,0,0,1-.349,1.292.588.588,0,0,1-.492.185,4.268,4.268,0,0,1-1.6-.554A19.812,19.812,0,0,1,7.424,41.76a23.95,23.95,0,0,1-4.2-8.347v2.769l.164,8.859a3.421,3.421,0,0,1-.882,2.4,4.748,4.748,0,0,1-3.691,1.292.952.952,0,0,1-.759-.246,2.222,2.222,0,0,1-.287-.882,2.547,2.547,0,0,0-1.21-1.8,11.577,11.577,0,0,0-2.892-1q-.144-.041-.144-.267,0-.287.185-.287,4.922.123,5.024.123.677,0,.677-.574v-4.2a44.012,44.012,0,0,1-9.29,5.045q-.267,1.723-.964,1.723-.39,0-.923-1.066-.472-.984-1.682-4.1h.308A28.851,28.851,0,0,0-9.7,40.837,44.419,44.419,0,0,0-.595,38.622V31.978H-7.937a10.656,10.656,0,0,0-2.276.287l-.451-1.538a13.784,13.784,0,0,0,2.646.287H-.595V26.481H-11.977a52.568,52.568,0,0,1-1.21,9.229,29.886,29.886,0,0,1-6.337,12.141.139.139,0,0,1-.1.041q-.369,0-.369-.328a.084.084,0,0,1,.021-.062,43.773,43.773,0,0,0,2.338-6.091A36.743,36.743,0,0,0-16.591,36.2a113.12,113.12,0,0,0,.923-15.319q0-3.835-.349-8.654a27.175,27.175,0,0,1,4.84,2.522H-1.23V12.229q0-.841-.164-2.522,5.619.554,5.619,1.436,0,.615-1.559,1.251v2.358H11.71q2.276-2.6,2.728-2.6a10.161,10.161,0,0,1,2.912,1.8q1.21.9,1.21,1.354,0,.41-.636.41H-11.73v1.169q0,5.271-.164,8.634h11.3v-4H-6.973a11.563,11.563,0,0,0-2.646.328l-.472-1.62a15.549,15.549,0,0,0,3.035.328h6.46v-.287A36.614,36.614,0,0,0-.8,16.392a33.826,33.826,0,0,1,4.573.7q.7.205.7.636,0,.574-1.251,1.025v1.8H9.434q1.784-2.03,2.235-2.03a6.815,6.815,0,0,1,2.317,1.518q.964.861.964,1.271,0,.308-1.312,1.436v2.769h.677Q15.976,23.2,16.55,23.2q.41,0,2.051,1.641.841.841.841,1.21,0,.431-.554.431h-5.25q.021,1.456.082,3.343.041,1.333.041,1.6a1.468,1.468,0,0,1-.923,1.518Q16.406,35.218,16.406,36q0,.554-.779.554a6.451,6.451,0,0,1-1.107-.123A20.223,20.223,0,0,1,8.859,39.155ZM8.1,38.54a21.118,21.118,0,0,0,3.138-3.507,17.32,17.32,0,0,0,1.107-1.969,4.1,4.1,0,0,1-.677.041q-1.518,0-1.641-1.128H3.507A18.234,18.234,0,0,0,8.1,38.54ZM3.22,21.519v4H9.987v-4Zm6.768,4.963H3.22v4.532H9.987ZM-3.486,36.94a1.9,1.9,0,0,1-.636,1.477,1.937,1.937,0,0,1-1.333.492,1.286,1.286,0,0,1-1.066-.369A8.238,8.238,0,0,1-7.178,36.9a9.069,9.069,0,0,0-2.133-3.22.273.273,0,0,1-.062-.164q0-.185.226-.185h.062Q-3.486,34.377-3.486,36.94Zm-.123,34.11a23.311,23.311,0,0,1,5.681,7.4,17.881,17.881,0,0,1,1.415,7.3q0,4.122-1.764,6.009a5.037,5.037,0,0,1-3.9,1.559,1.286,1.286,0,0,1-.82-.185A1.2,1.2,0,0,1-3.22,92.4a2.579,2.579,0,0,0-1.292-1.907,12.733,12.733,0,0,0-2.994-1.107q-.144-.041-.144-.267,0-.287.185-.287,4.1.328,4.963.328a1.45,1.45,0,0,0,1.374-.677q.595-.9.595-4.532v-.513a41.623,41.623,0,0,1-18.354,7.075q-.267.062-.267-.267a.126.126,0,0,1,.1-.144A48.909,48.909,0,0,0-1,79.151q-.185-.882-.574-2.133a42.944,42.944,0,0,1-8.449,4.163,46.85,46.85,0,0,1-8.265,1.969q-.267.062-.267-.267a.126.126,0,0,1,.1-.144A44.156,44.156,0,0,0-3.22,73.409a11.508,11.508,0,0,0-1.148-1.8q-4.9,3.179-13.494,4.778-.328.062-.328-.308a.1.1,0,0,1,.082-.1q8.859-3.445,13.248-8.408h-5.763a18.848,18.848,0,0,0-2.687.246l-.451-1.538a16.441,16.441,0,0,0,3.138.328H7.444q2.153-2.646,2.687-2.646A10.017,10.017,0,0,1,12.858,65.8q1.169.943,1.169,1.354t-.533.41H2.994a29.113,29.113,0,0,0,3.445,8.613,26.141,26.141,0,0,0,3.281-4.122,20.679,20.679,0,0,0,1.62-3.2q4.327,2.5,4.327,3.322,0,.718-1.682.718a47.069,47.069,0,0,1-6.829,4.409,21.495,21.495,0,0,0,12.1,8.839q.1.021.1.1a.3.3,0,0,1-.185.267,3.741,3.741,0,0,0-1.374,1.21,10.838,10.838,0,0,0-.984,2.112,4.187,4.187,0,0,1-.41.82.483.483,0,0,1-.349.1,2.657,2.657,0,0,1-1.21-.595,24.262,24.262,0,0,1-6.891-6.809Q3.794,77.429,2.03,67.564H.431A27.8,27.8,0,0,1-3.609,71.051ZM1.682,60.469H12.694q1.784-1.887,2.215-1.887.451,0,3.158,2.174,1.21,1.046,1.21,1.559,0,.882-1.764.882a3.787,3.787,0,0,0-2.01.513q-.861.554-2.728,1.559a.337.337,0,0,1-.1.021q-.205,0-.205-.226V65a26.252,26.252,0,0,0,.779-3.568H-13.433a7.127,7.127,0,0,1-.923,4.02,2.763,2.763,0,0,1-2.44,1.436q-2.03,0-2.03-2.174a2.249,2.249,0,0,1,.349-1.354,3.986,3.986,0,0,1,1.21-.882,4.921,4.921,0,0,0,2.912-4.307q0-.185.246-.185a.2.2,0,0,1,.226.144,12.051,12.051,0,0,1,.41,2.338H-2.42V57.331q0-.431-.082-2.358,5.476.513,5.476,1.292,0,.656-1.292.984ZM-7.28,128.027A30.177,30.177,0,0,0-4.922,119.8H-7.157a2.5,2.5,0,0,1-2.092,1.251q-2.317,0-2.317-1.087a6.6,6.6,0,0,1,1.128-1.887,44.745,44.745,0,0,0,3.794-7.137h-2.44a15.1,15.1,0,0,0-2.4.205l-.328-1.477a12.09,12.09,0,0,0,2.728.308h2.358q1.6-1.846,2.051-1.846.492,0,2.153,1.518.841.718.841,1.169,0,.841-1.6,1.333-2.5,5.414-3.24,6.686h1.477q1.538-1.641,1.969-1.641.451,0,2.051,1.518a3.342,3.342,0,0,1,.677.8,23.878,23.878,0,0,0,3.117.246H5.7v-6.419q-2.748.41-6.6.656-.246,0-.246-.328,0-.164.1-.185A47.3,47.3,0,0,0,9.29,109.714a13.63,13.63,0,0,0,3.466-2.461q3.65,2.256,3.65,3.056,0,.595-1.251.595-.308,0-.759-.041a42.97,42.97,0,0,1-4.84,1.682v7.219h3.076q2.112-2.6,2.646-2.6a9.006,9.006,0,0,1,2.522,1.8q1.087.964,1.087,1.333,0,.431-.554.431H9.557V129.5h2.01q2.194-2.481,2.687-2.481a7.832,7.832,0,0,1,2.4,1.723q1,.943,1,1.292,0,.431-.533.431H3.015a22.124,22.124,0,0,0-2.974.246l-.472-1.559a18.626,18.626,0,0,0,3.445.349H5.7v-8.777H2.769a23.672,23.672,0,0,0-3.076.246l-.164-.574a2.716,2.716,0,0,1-.677.41,24.877,24.877,0,0,1-3.9,9.7A13.131,13.131,0,0,0,.636,133.4a33.908,33.908,0,0,0,7.526.677q4.081,0,11.2-.718a.127.127,0,0,1,.144.144.254.254,0,0,1-.185.267,2.583,2.583,0,0,0-1.292,1.087,5.54,5.54,0,0,0-.513,1.989q-.041.574-.964.636-1.518.123-6.706.123A34.874,34.874,0,0,1-.39,136.456,13.027,13.027,0,0,1-5.8,133.031l-.677-.759a26.888,26.888,0,0,1-9.187,5.927h-.062a.29.29,0,0,1-.328-.328.139.139,0,0,1,.041-.1A28.081,28.081,0,0,0-8.2,129.75a28.3,28.3,0,0,1-2.276-5.086,1.177,1.177,0,0,0-.677-.677.348.348,0,0,1-.246-.369q0-.308.7-.615a2.761,2.761,0,0,1,1.128-.267q.287,0,.287.328l-.226.8a4.493,4.493,0,0,0,.472,1.271A18.465,18.465,0,0,0-7.28,128.027Zm9.741-23.01h9.372q2.235-2.6,2.687-2.6a10.465,10.465,0,0,1,2.892,1.764q1.251.943,1.251,1.395,0,.41-.615.41H-12.407V108.3q-.123,11.607-1.415,17.37a27.3,27.3,0,0,1-5.927,11.874.138.138,0,0,1-.123.062q-.349,0-.349-.287a.084.084,0,0,1,.021-.062,45.327,45.327,0,0,0,3.343-13.022q.492-5.106.492-12.243,0-5.209-.267-9.331a31.585,31.585,0,0,1,4.778,2.358H-1.436V102.29a17.263,17.263,0,0,0-.205-2.481q5.435.554,5.435,1.477,0,.513-1.333,1.087Zm-14.048,62.391a31.4,31.4,0,0,1-7.854,9.27.228.228,0,0,1-.1.021.236.236,0,0,1-.267-.267.139.139,0,0,1,.041-.1,49.145,49.145,0,0,0,7.649-15.935h-3.794a16.3,16.3,0,0,0-2.522.246l-.451-1.559a13.356,13.356,0,0,0,2.81.328h4.286v-8.818q0-3.732-.164-5.681a42.5,42.5,0,0,1,4.389.759q.636.185.636.636,0,.472-1.292,1.087V159.41h2.01q1.559-2.133,2.112-2.133a6.826,6.826,0,0,1,2.174,1.5q.923.8.923,1.189,0,.431-.533.431H-8.224v3.117q6.132,1.538,6.132,4.86a2.026,2.026,0,0,1-.636,1.477,1.627,1.627,0,0,1-1.169.533,1.759,1.759,0,0,1-1.251-.39,3.431,3.431,0,0,1-.8-1.579,8.94,8.94,0,0,0-2.276-3.855v.123l.123,17.165q0,1.682-2.338,1.682-1.641,0-1.641-1.354,0-.41.246-6.275Q-11.628,170.751-11.587,167.408Zm25.8,1.579.39-.082q1.436-2.851,1.928-2.851a8.874,8.874,0,0,1,2.522,1.313q1,.615,1,1.046,0,.369-.472.492l-5.373,1q.021,1.928.123,7.9.041,2.851.041,3.835,0,1.8-2.44,1.8-1.8,0-1.8-1.477l.062-11.3L-.062,172.617a15.414,15.414,0,0,0-2.953.882l-.779-1.518a18.1,18.1,0,0,0,3.343-.308l10.644-1.969q.041-4.286.041-16.427,0-4.819-.226-7.9a32.4,32.4,0,0,1,4.553.656q.964.287.964.779,0,.451-1.395,1.128v6.727Q14.13,161.276,14.212,168.987ZM8.244,154.427a2.2,2.2,0,0,1-.677,1.682,2.017,2.017,0,0,1-1.456.574A1.286,1.286,0,0,1,5,156.211a15.7,15.7,0,0,1-1.066-2.133A8.6,8.6,0,0,0,.9,150.469.2.2,0,0,1,.82,150.3a.181.181,0,0,1,.205-.205Q8.244,150.735,8.244,154.427ZM6.809,164.25a2.529,2.529,0,0,1-.636,1.8,1.8,1.8,0,0,1-1.374.595,1.639,1.639,0,0,1-1.128-.349,2.913,2.913,0,0,1-.636-1.128A9.4,9.4,0,0,0,1.6,162.507a14.138,14.138,0,0,0-2.133-2.092.147.147,0,0,1-.082-.144q0-.226.246-.226Q6.809,160.723,6.809,164.25ZM-12.961,155a2.935,2.935,0,0,1-.554,1.846,1.481,1.481,0,0,1-1.21.636,1.182,1.182,0,0,1-1.169-.615,8.1,8.1,0,0,1-.492-2.276,16.018,16.018,0,0,0-1.6-6.009.182.182,0,0,1-.021-.082.218.218,0,0,1,.246-.246.139.139,0,0,1,.1.041Q-12.961,151.761-12.961,155Zm12.592-4.614q0,.718-1.6.882a34.481,34.481,0,0,1-4.819,6.337.16.16,0,0,1-.144.062q-.287,0-.287-.226a.157.157,0,0,1,.021-.062,50.311,50.311,0,0,0,1.825-5.968,30.128,30.128,0,0,0,.595-3.322Q-.369,149.792-.369,150.387Zm8.388,59.068v6.932H10.91q2.481-2.769,2.974-2.769a9.84,9.84,0,0,1,2.769,1.928q1.189,1,1.189,1.395,0,.41-.554.41H8.019v7.772h4.532q2.707-2.851,3.2-2.851.431,0,2.851,2.01,1.21.984,1.21,1.395t-.554.41H-5.8a18.689,18.689,0,0,0-2.728.246L-9,224.795a15.424,15.424,0,0,0,3.056.328H4.245v-7.772H-1.907a17.712,17.712,0,0,0-2.646.246L-5,216.059a14.443,14.443,0,0,0,2.974.328H4.245v-6.932H-.595V210.5q0,1.477-2.4,1.477-1.682,0-1.682-1.477.246-5.229.246-12.038,0-3.117-.246-7.731,2.625,1.189,4.368,2.174H12.961q1.6-1.846,2.071-1.846a7.344,7.344,0,0,1,2.461,1.6q1.025.841,1.025,1.251,0,.574-1.518,1.477v2.44l.185,12.3q0,1.559-2.42,1.559-1.538,0-1.538-1.354v-.882Zm0-.964h5.209v-6.973H8.019Zm0-7.937h5.209v-6.686H8.019Zm-8.613,7.937h4.84v-6.973H-.595Zm0-7.937h4.84v-6.686H-.595Zm-9.987,14.909q3.3-1.148,5.64-2.112a.084.084,0,0,1,.062-.021q.267,0,.267.328a.16.16,0,0,1-.062.144,47.617,47.617,0,0,1-11.669,7.424q-.041,1.8-.882,1.8-.492,0-1.107-1.128-.513-.984-1.743-3.917a32.211,32.211,0,0,0,3.732-.8q1.559-.41,1.989-.554V205.846h-1.866a13.451,13.451,0,0,0-2.3.246l-.472-1.538a12.284,12.284,0,0,0,2.687.328h1.948v-9.946h-2.358a13.8,13.8,0,0,0-2.317.246l-.451-1.538a11.563,11.563,0,0,0,2.646.328h5.906q1.723-2.276,2.276-2.276a8.019,8.019,0,0,1,2.42,1.6q1.025.82,1.025,1.23t-.554.41h-4.819v9.946h.328q1.395-2.051,1.969-2.051a6.186,6.186,0,0,1,2.112,1.456q.841.779.841,1.148,0,.41-.554.41h-4.7ZM4.9,265.632a13.179,13.179,0,0,0,1.661.882,31.25,31.25,0,0,0,11.751,2.646q.185,0,.185.246a.2.2,0,0,1-.144.226,4.076,4.076,0,0,0-1.887,1,4.628,4.628,0,0,0-.841,1.8q-.287,1.046-1.087,1.046a9.347,9.347,0,0,1-1.764-.369,33.088,33.088,0,0,1-6.091-2.646,19.547,19.547,0,0,1-5.373-4.491,32.911,32.911,0,0,1-3.773-6.357H-8.1V268.4q4.225-.718,8.962-1.969.246-.041.246.246a.216.216,0,0,1-.082.185,67.461,67.461,0,0,1-14.458,6.214q-.431,1.169-.964,1.169-.39,0-.882-1.169-.431-1.025-1.251-3.753,2.01-.062,4.614-.369V257.982q0-4.819-.123-9.618a58.453,58.453,0,0,1-7.629,3.445h-.041q-.267,0-.267-.41a.16.16,0,0,1,.062-.144A47.834,47.834,0,0,0-6.665,240.12a17.591,17.591,0,0,0,3.24-5.742,43.647,43.647,0,0,1,4.819,1.6q.861.39.861.759,0,.656-1.743.841a25.54,25.54,0,0,0,7.567,6.07,36.072,36.072,0,0,0,11.956,3.671q.144.021.144.205,0,.246-.185.287a2.453,2.453,0,0,0-1.641.841,6.539,6.539,0,0,0-.964,2.112q-.267.923-.738.923a6.62,6.62,0,0,1-1.887-.636q-1.682-.8-4.122-2.276a4.753,4.753,0,0,1-.882.636v1.354l.185,8.06a1.473,1.473,0,0,1-.041.39q.472-.656.738-1.066a38.391,38.391,0,0,1,3.507,2.235,1.211,1.211,0,0,1,.574.882q0,.513-1.025.513a6.456,6.456,0,0,1-.82-.062A44.483,44.483,0,0,1,4.9,265.632Zm-.964-.595a52.307,52.307,0,0,0,4.45-4.02q.246-.267.677-.759a3.331,3.331,0,0,1-1.354.205q-1.5,0-1.723-.841H-1.5A21.1,21.1,0,0,0,3.938,265.037ZM-9.434,246.806q.492.205,1.5.677h4.8v-1.928a25.579,25.579,0,0,0-.205-3.076q5.209.472,5.209,1.189,0,.431-1.251,1.128v2.687H5.783q.246-.226,1.292-1.128A28.143,28.143,0,0,1-.062,238.11,38.408,38.408,0,0,1-9.434,246.806ZM5.947,258.659v-4.7H-8.1v4.7Zm0-5.66v-4.553H-8.1V253Zm-4.43,49.86v5.8h6.85q2.256-2.646,2.769-2.646a9.308,9.308,0,0,1,2.687,1.846q1.169.943,1.169,1.354t-.533.41H1.518V315.8H11.813q2.6-2.851,3.1-2.851.451,0,2.83,1.969,1.21,1.046,1.21,1.436,0,.41-.554.41h-33.92a19.1,19.1,0,0,0-2.748.246l-.451-1.538a15.424,15.424,0,0,0,3.056.328H-2.481v-6.173h-9.311a16.149,16.149,0,0,0-2.481.246l-.472-1.538a12.688,12.688,0,0,0,2.789.328h9.475v-5.8H-7.219q0,1.764-2.133,1.764-1.641,0-1.641-1.23l.082-7.178q0-1.333-.082-3.773a35.715,35.715,0,0,1,4.1,1.969H6.357q1.6-1.8,2.051-1.8a6.158,6.158,0,0,1,2.276,1.436q.923.738.923,1.169,0,.451-1.189,1.128v1.148l.082,5.5q0,1.559-2.133,1.559a1.865,1.865,0,0,1-1.312-.349,1.5,1.5,0,0,1-.328-1.087v-.246Zm5.209-.964v-6.521H-7.219V301.9ZM-13.7,288.955H-2.276v-5.537q0-2.01-.123-3.568,5.455.492,5.455,1.333,0,.451-1.518,1.046v6.727H4.86A32.33,32.33,0,0,0,6.993,285a29.474,29.474,0,0,0,1.436-3.855q4.963,1.682,4.963,2.646,0,.738-1.866.8a28.621,28.621,0,0,1-4.983,4.368H13q1.969-2.051,2.4-2.051.451,0,2.851,2.051,1.21,1.046,1.21,1.456a.711.711,0,0,1-.39.738,3.708,3.708,0,0,1-1.251.144,1.805,1.805,0,0,0-1.169.349,22.358,22.358,0,0,1-3.937,2.543.182.182,0,0,1-.082.021q-.349,0-.349-.287a.084.084,0,0,1,.021-.062,32.238,32.238,0,0,0,1.087-3.937H-13.576v.513a6.7,6.7,0,0,1-1.107,4.04,2.776,2.776,0,0,1-2.3,1.292,2.08,2.08,0,0,1-1.641-.7,2.159,2.159,0,0,1-.533-1.5,2.132,2.132,0,0,1,1.333-2.051,5.663,5.663,0,0,0,2.42-1.784,7.9,7.9,0,0,0,.861-2.748.194.194,0,0,1,.205-.164.178.178,0,0,1,.205.164A9.089,9.089,0,0,1-13.7,288.955Zm7.937-3.281q0,2.481-2.174,2.481a1.411,1.411,0,0,1-1.292-.615,7.408,7.408,0,0,1-.677-2.071,9.465,9.465,0,0,0-1.907-3.855.33.33,0,0,1-.041-.144.181.181,0,0,1,.205-.205h.062Q-5.763,282.823-5.763,285.674Zm-.728,55.972q-2.646-3.63-2.646-6.542A6.167,6.167,0,0,1-6.9,330.223a7.9,7.9,0,0,1,5.271-1.764q3.691,0,5.537,1.743a4.716,4.716,0,0,1,1.477,3.589A5.538,5.538,0,0,1,2.9,338.385a20.434,20.434,0,0,1-5.024,2.5q3.835,4.881,8.982,10.5a17.519,17.519,0,0,0,1.723-3.732,7.971,7.971,0,0,0,.533-2.543,2.053,2.053,0,0,0-.328-1.23,3.7,3.7,0,0,0-2.974-1.395q-.39-.041-.39-.533,0-.595.39-.595,2.215.123,4.7.123,2.133,0,4.409-.123.39,0,.39.513,0,.574-.39.615a4.411,4.411,0,0,0-2.687,1.395,17.631,17.631,0,0,0-2.215,4.143,18.977,18.977,0,0,1-2.235,4.2,47.656,47.656,0,0,0,5.291,5.045,7.521,7.521,0,0,0,2.851.8q.431.041.431.533a.417.417,0,0,1-.472.472q-1.969-.123-3.773-.123-2.522,0-3.835.041-.964-1.271-3.1-3.568Q1.1,359.836-4.03,359.836a10.372,10.372,0,0,1-7.547-2.728,8.087,8.087,0,0,1-2.44-6.05,8.2,8.2,0,0,1,2.584-6.009A21.456,21.456,0,0,1-6.491,341.646Zm3.691-1.764A7.515,7.515,0,0,0,.667,336.99a6.4,6.4,0,0,0,.759-3.281,4.866,4.866,0,0,0-.8-2.974,2.7,2.7,0,0,0-2.3-1.066,2.892,2.892,0,0,0-2.44,1.436,5.584,5.584,0,0,0-.9,3.24,7.391,7.391,0,0,0,.513,2.789A12.9,12.9,0,0,0-2.8,339.882Zm-2.892,2.728q-3.548,2.379-3.548,7.3a7.327,7.327,0,0,0,2.379,5.64,6.132,6.132,0,0,0,4.266,1.764,9.644,9.644,0,0,0,6.809-2.728Q-.79,348.885-5.691,342.609Zm9.936,62.944v1.682q0,1.6-2.092,1.6-1.6,0-1.6-1.21l.205-18.416v-7.26a21.519,21.519,0,0,1-1.948,1.743.182.182,0,0,1-.082.021.484.484,0,0,1-.308-.144.329.329,0,0,1-.144-.226.182.182,0,0,1,.021-.082,32.146,32.146,0,0,0,3.9-8.9,27.586,27.586,0,0,0,.841-4.348,36.9,36.9,0,0,1,4.266,1.5q.964.451.964.9a.632.632,0,0,1-.41.615,6,6,0,0,1-1.312.267,31.257,31.257,0,0,1-3.466,6.05H8.552q1.251-3.835,1.6-5.373a21.583,21.583,0,0,0,.472-3.4,35.622,35.622,0,0,1,4.327,1.395q.759.349.759.82,0,.656-1.6.943a29.431,29.431,0,0,1-4.122,5.619h3.527q1.743-2.317,2.235-2.317a7.47,7.47,0,0,1,2.481,1.6q1.046.841,1.046,1.271,0,.41-.636.41H11.751v6.973h1.21Q14.355,385,14.95,385q.41,0,2.215,1.6.923.861.923,1.23,0,.41-.533.41h-5.8v6.891h1.087q1.436-2.235,2.01-2.235.431,0,2.194,1.559.923.861.923,1.21,0,.431-.533.431H11.751v8.49h2.276q1.538-2.481,2.133-2.481.431,0,2.317,1.723.964.9.964,1.313t-.554.41Zm0-18.272H8.306v-6.973H4.245Zm0,.964v6.891H8.306v-6.891Zm0,7.854v8.49H8.306V396.1Zm-15.668,2.092a27.1,27.1,0,0,1-3.937,3.917,30.215,30.215,0,0,1-4.163,2.584.157.157,0,0,1-.062.021.29.29,0,0,1-.328-.328q0-.082.041-.1a30.4,30.4,0,0,0,7.731-11.71h-4.081a16.609,16.609,0,0,0-2.522.246l-.451-1.538a13.356,13.356,0,0,0,2.81.328h4.84v-2.133q0-1.477-.185-3.322,4.963.513,4.963,1.292,0,.554-1.21,1.046v3.117h2.133q1.7-2.133,2.235-2.133a7.272,7.272,0,0,1,2.3,1.518q.964.759.964,1.169t-.533.41h-7.1v2.215a9.475,9.475,0,0,1,4.737,1.907,3.6,3.6,0,0,1,1.477,2.81,1.983,1.983,0,0,1-.574,1.5,1.807,1.807,0,0,1-1.271.472,1.487,1.487,0,0,1-1.189-.451,4.687,4.687,0,0,1-.7-1.559,8.339,8.339,0,0,0-2.481-4v.759l.123,11.074q0,1.6-2.276,1.6a1.757,1.757,0,0,1-1.292-.369,1.6,1.6,0,0,1-.308-1.107q0-.349.123-3.773Q-11.464,400.447-11.423,398.191Zm1.374-20.692a13.786,13.786,0,0,1-3.035,7.362,17.874,17.874,0,0,1-6.193,4,.059.059,0,0,1-.041.021q-.267,0-.267-.328a.16.16,0,0,1,.062-.144,17.048,17.048,0,0,0,4.307-5.106,16.516,16.516,0,0,0,1.641-5.763l-3.445.041a7.988,7.988,0,0,0-1.8.246l-.328-1.559a5.617,5.617,0,0,0,1.969.308l3.691-.062q.164-1.62.164-3.979,0-.984-.164-2.563a40.028,40.028,0,0,1,4.512.738q.7.226.7.738,0,.472-1.333,1.046-.041,1.7-.287,3.979H-8.06q1.456-1.62,1.764-1.62.574,0,2.133,1.415a1.658,1.658,0,0,1,.677,1.107q0,.431-1.128,1.046-.185,3.322-.185,4.86,0,.718.41.718.533,0,.841-.677a31.928,31.928,0,0,0,1.107-3.138.161.161,0,0,1,.185-.144q.226,0,.226.185-.082,1.846-.082,2.81a.832.832,0,0,0,.595.8A1.23,1.23,0,0,1-.636,385a1.565,1.565,0,0,1-1.046,1.5,7.777,7.777,0,0,1-3.2.513,4.251,4.251,0,0,1-2.625-.615,2.127,2.127,0,0,1-.7-1.743q0-.595.1-3.343.144-3.445.164-3.855ZM5.927,426.354h6.788q2.358-2.769,2.871-2.769a10.448,10.448,0,0,1,2.728,1.928q1.169,1,1.169,1.395,0,.41-.533.41H4.655a54.041,54.041,0,0,1-6.706,4.2H6.727q1.743-1.846,2.174-1.846a6.815,6.815,0,0,1,2.317,1.518q.923.8.923,1.21,0,.431-1.107,1.313v1.538l.1,7.9q0,1.641-2.358,1.641-1.641,0-1.641-1.087v-.513H-6.009v.451q0,1.313-2.317,1.313-1.723,0-1.723-1.312l.144-8.634q-3.773,1.415-9.126,2.892-.328.062-.328-.369a.147.147,0,0,1,.082-.144A100.53,100.53,0,0,0-9.905,433.2a32.089,32.089,0,0,0-.185-3.609q2.563,1,3.835,1.6,2.851-1.641,5.968-3.876h-15.34a20.537,20.537,0,0,0-2.851.246l-.472-1.538a16.722,16.722,0,0,0,3.2.328H-4.081v-4.84h-6.665a21.845,21.845,0,0,0-2.912.246l-.451-1.538a17.263,17.263,0,0,0,3.22.328h6.809v-.923q0-2.481-.205-4.573,5.5.513,5.5,1.354,0,.554-1.333,1v3.138H1.641Q3.466,418.336,4,418.336a7.793,7.793,0,0,1,2.379,1.538,3.3,3.3,0,0,1,.841.841,35.043,35.043,0,0,0,3.773-4.778,36.553,36.553,0,0,1,3.65,2.071q.759.533.759.964a.509.509,0,0,1-.369.533,15.648,15.648,0,0,1-1.682.205A74.975,74.975,0,0,1,5.927,426.354Zm-4.922,0a52.515,52.515,0,0,0,5.455-4.84H-.123v4.84Zm-7.014,7.055v3.281H7.137v-4.2H-4Q-4.7,432.835-6.009,433.409Zm13.146,8.818v-4.573H-6.009v4.573Zm-18.765,3.158q.041.677.041,1.395a8.254,8.254,0,0,1-1.436,5.291,3.5,3.5,0,0,1-2.851,1.374,2.292,2.292,0,0,1-1.784-.7,2.247,2.247,0,0,1-.533-1.559,1.985,1.985,0,0,1,.595-1.559,3.884,3.884,0,0,1,1.682-.718,4.4,4.4,0,0,0,3.773-3.548q.021-.144.226-.144Q-11.628,445.222-11.628,445.386Zm7.178,7.854a1.743,1.743,0,0,1-1.374-.554,1.83,1.83,0,0,1-.431-1.251l.164-2.851a13.768,13.768,0,0,0-.328-3.035v-.062a.127.127,0,0,1,.144-.144.364.364,0,0,1,.164.041,8.554,8.554,0,0,1,3.179,2.851,4.749,4.749,0,0,1,.841,2.563,2.426,2.426,0,0,1-.7,1.825A2.288,2.288,0,0,1-4.45,453.24Zm12.018-2.461a2.291,2.291,0,0,1-.677,1.723,2.14,2.14,0,0,1-1.518.574,1.693,1.693,0,0,1-1.518-.615,5.326,5.326,0,0,1-.492-2.071,10.7,10.7,0,0,0-1.6-4.737.139.139,0,0,1-.041-.1q0-.205.267-.205a.228.228,0,0,1,.1.021,10.126,10.126,0,0,1,4.225,2.522A4.206,4.206,0,0,1,7.567,450.779Zm10.623.1a2.386,2.386,0,0,1-.677,1.764,1.98,1.98,0,0,1-1.456.595,1.658,1.658,0,0,1-1.395-.554,9.657,9.657,0,0,1-.964-2.174,10.273,10.273,0,0,0-3.261-4.84.1.1,0,0,1-.062-.1q0-.39.349-.308Q18.19,447.272,18.19,450.882ZM3.814,528.29v-6.932h-6.46a19.279,19.279,0,0,0-2.789.246l-.451-1.538a16.441,16.441,0,0,0,3.138.328H3.814V516.56H-.923a20.792,20.792,0,0,0-2.83.246l-.451-1.538a16.627,16.627,0,0,0,3.179.328h4.84v-3.527H-2.871a13.451,13.451,0,0,0-2.3.246l-.472-1.538a12.284,12.284,0,0,0,2.687.328H7.465a21.836,21.836,0,0,0,1.087-3.486,13.334,13.334,0,0,0,.513-2.892q5,1.354,5,2.174a.641.641,0,0,1-.349.615,4.605,4.605,0,0,1-1.292.349A21.536,21.536,0,0,1,8.9,511.1H13.31q1.8-2.092,2.3-2.092a7.439,7.439,0,0,1,2.317,1.477q.964.82.964,1.169,0,.41-.554.41H7.424V515.6H11.2q1.887-2.235,2.4-2.235a7.967,7.967,0,0,1,2.358,1.6q.923.8.923,1.169,0,.431-.554.431h-8.9v3.835h6.255q1.989-2.235,2.481-2.235a7.1,7.1,0,0,1,2.276,1.6q.923.8.923,1.189,0,.41-.554.41H7.424v6.932H9.393q.205-.574,1.046-3.527a15.582,15.582,0,0,0,.472-2.769q3.138.984,3.958,1.354.7.328.7.656,0,.759-1.6.759A31.641,31.641,0,0,1,10.4,528.29h3.958q1.969-2.235,2.481-2.235a7.3,7.3,0,0,1,2.256,1.6q.923.8.923,1.189,0,.41-.533.41H-2.83A19.187,19.187,0,0,0-5.6,529.5l-.451-1.538a16.441,16.441,0,0,0,3.138.328Zm-13.945-.8h-3.65a50.593,50.593,0,0,1-.923,6.829,20.616,20.616,0,0,1-1.825,5.024,30.826,30.826,0,0,1-2.584,3.958.138.138,0,0,1-.123.062q-.308,0-.308-.287a.084.084,0,0,1,.021-.062,44.423,44.423,0,0,0,2.03-9.372q.554-5.147.554-21.369,0-2.646-.164-6.788a42.684,42.684,0,0,1,4.04,2.215H-10.5q1.5-1.846,1.969-1.846a6.247,6.247,0,0,1,2.215,1.477q.882.82.882,1.21,0,.369-1.128,1.087v4.8l.041,24.486a3.706,3.706,0,0,1-1.271,3.1,4.106,4.106,0,0,1-2.666.8.889.889,0,0,1-.984-.841,2.869,2.869,0,0,0-.882-1.948,6.185,6.185,0,0,0-2.256-.943q-.164-.041-.164-.287,0-.226.164-.226,2.071.164,3.773.164.677,0,.677-.738Zm0-.964v-8.613h-3.322q-.021.943-.062,2.871-.082,3.835-.185,5.742Zm0-9.577v-8.285h-3.281v1.395q0,4.573-.041,6.891Zm21.677,23.933H-.021v.964q0,1.518-2.3,1.518-1.559,0-1.559-1.251l.082-6.275q0-2.687-.164-4.942a44.353,44.353,0,0,1,4.409,2.051H11.218q1.682-1.928,2.133-1.928a6.649,6.649,0,0,1,2.317,1.415q.964.759.964,1.189,0,.513-1.23,1.415v1.107l.144,5.5q0,1.559-2.44,1.559-1.559,0-1.559-1.271Zm0-.964v-6.009H-.021v6.009ZM3.507,508.541a2.073,2.073,0,0,1-.7,1.6,2.075,2.075,0,0,1-1.436.533,1.434,1.434,0,0,1-1.23-.451,4.875,4.875,0,0,1-.533-1.641,8.52,8.52,0,0,0-1.661-3.425.249.249,0,0,1-.062-.123q0-.144.185-.144h.082a13.11,13.11,0,0,1,4.307,1.661A2.382,2.382,0,0,1,3.507,508.541ZM1.825,525.85a1.832,1.832,0,0,1-.636,1.415,1.747,1.747,0,0,1-1.251.513,1.326,1.326,0,0,1-1.169-.472,5.187,5.187,0,0,1-.574-1.7,8.46,8.46,0,0,0-1.271-3.015.33.33,0,0,1-.041-.144q0-.164.205-.164h.062a10.705,10.705,0,0,1,3.712,1.661A2.37,2.37,0,0,1,1.825,525.85Z" transform="translate(93 356)" fill="#004c34"/><path d="M-13.551-8.5A7.117,7.117,0,0,1-9.613-7.167,3.052,3.052,0,0,1-8.465-4.707,3.625,3.625,0,0,1-10-1.6,8.256,8.256,0,0,1-14.894-.4q-.964,0-1.887-.062Q-18.083-.5-18.524-.5q-.964,0-2.8.041-.164,0-.164-.256t.164-.267a10.091,10.091,0,0,0,1-.144.862.862,0,0,0,.5-.41,7.7,7.7,0,0,0,.277-2.789v-7.619q0-1.661-.041-2.03a1.7,1.7,0,0,0-.236-.728.935.935,0,0,0-.615-.379,9.546,9.546,0,0,0-1-.123q-.185-.021-.185-.267,0-.3.205-.3,1.395.062,2.84.062.308,0,.882-.031.7-.031.851-.031,1.22-.041,1.7-.041,3.292,0,4.666,1.087a2.9,2.9,0,0,1,1.046,2.4q0,2.635-4.122,3.691Zm-3.568-.359q.318.021.718.021,4.348,0,4.348-3.312a2.694,2.694,0,0,0-.995-2.287,3.76,3.76,0,0,0-2.348-.656q-1.2,0-1.5.461a8.426,8.426,0,0,0-.226,2.687Zm0,.779v3.753q0,1.241.041,1.641a2.223,2.223,0,0,0,.256.984,1.146,1.146,0,0,0,.759.523A5.15,5.15,0,0,0-15-1.1,3.632,3.632,0,0,0-11.838-2.43a3.748,3.748,0,0,0,.646-2.256,2.991,2.991,0,0,0-.892-2.348A6.12,6.12,0,0,0-16.155-8.1Q-16.6-8.1-17.119-8.08ZM1.574-6.234q-1.415-.082-2.4-.082-.81,0-2.6.082l-.8,2.2a5.016,5.016,0,0,0-.349,1.62,1.968,1.968,0,0,0,.133.728q.215.513,1.63.677.185,0,.185.267t-.236.277Q-3.635-.5-5.481-.5-7-.5-7.685-.461q-.236,0-.236-.277T-7.685-1a2.373,2.373,0,0,0,1.23-.656A7.1,7.1,0,0,0-5.173-4.112l2.522-6.809q.943-2.543,1.518-4.409l1.651-.759a.253.253,0,0,1,.277.195q.154.472,1.743,5.1l2.369,6.85A9.048,9.048,0,0,0,5.963-1.559a1.2,1.2,0,0,0,.554.431,4.082,4.082,0,0,0,.8.123q.277,0,.277.267a.245.245,0,0,1-.277.277Q5.45-.5,4.343-.5q-1.087,0-2.963.041-.164,0-.164-.277T1.379-1q1.313-.072,1.456-.554a1.257,1.257,0,0,0,.062-.4,6.519,6.519,0,0,0-.441-1.8ZM-.866-13.5-1.81-10.8-3.153-7.075q.687.041,2.328.041,1.5,0,2.1-.041L.015-10.756Q-.323-11.72-.866-13.5ZM12.71-7.731v3.384q0,1.661.041,2.112a1.752,1.752,0,0,0,.195.677.91.91,0,0,0,.625.431q.185.041.995.123.164.021.164.287t-.205.256q-1.938-.082-3-.082-1.087,0-2.9.082-.205,0-.205-.256T8.618-1A5.818,5.818,0,0,0,9.6-1.159a.751.751,0,0,0,.461-.4,8.284,8.284,0,0,0,.256-2.789v-7.6q0-1.651-.031-2.02a1.983,1.983,0,0,0-.185-.718.892.892,0,0,0-.656-.4q-.205-.041-1.046-.123-.185-.021-.185-.287t.185-.277q1.456.062,3,.062l3.466-.082a6.884,6.884,0,0,1,4.6,1.282,3.353,3.353,0,0,1,1.128,2.646A3.351,3.351,0,0,1,19.652-9.5,5.258,5.258,0,0,1,17.1-8.111Q18.677-5.25,20.123-2.9a5.382,5.382,0,0,0,1.241,1.579A3.374,3.374,0,0,0,22.646-1q.164.021.164.267,0,.277-.164.277-1.764-.082-2.225-.082-1.2,0-1.938.021a10.293,10.293,0,0,0-.759-1.641Q14.986-7.2,14.709-7.711q-.215.021-.7.021Q13.233-7.69,12.71-7.731Zm0-.708a11.834,11.834,0,0,0,1.364.072,3.97,3.97,0,0,0,3.117-1.107,3.307,3.307,0,0,0,.749-2.266q0-3.333-3.486-3.333-1.23,0-1.507.4a4.568,4.568,0,0,0-.236,1.907v4.327Z" transform="translate(93 836)" fill="#004c34"/></g><path d="M7.588,17.324a5.658,5.658,0,0,0,.6.654,5.505,5.505,0,0,0,2.354,1.494,11.66,11.66,0,0,0,3.545.449,34.347,34.347,0,0,0,5.059-.342q.107-.02.107.117a.135.135,0,0,1-.068.127,1.432,1.432,0,0,0-.5.381,1.027,1.027,0,0,0-.117.439.4.4,0,0,1-.146.293,1.014,1.014,0,0,1-.371.088q-1.387.078-3.76.078a11.093,11.093,0,0,1-3.906-.576A6.5,6.5,0,0,1,8.32,19.238,7.49,7.49,0,0,1,7.227,18a12.205,12.205,0,0,1-2.939,3.34.066.066,0,0,1-.049.02q-.166,0-.166-.146a.105.105,0,0,1,.02-.059A13.8,13.8,0,0,0,6.66,17.1a14.024,14.024,0,0,1-1.289-3.564.743.743,0,0,0-.225-.381q-.215-.146-.215-.273,0-.068.332-.166a1.676,1.676,0,0,1,.43-.078q.2,0,.2.117a.167.167,0,0,1-.029.078.646.646,0,0,1-.029.088.6.6,0,0,0-.078.234,2.42,2.42,0,0,0,.1.527,11.3,11.3,0,0,0,1.094,2.656,22.691,22.691,0,0,0,1.016-5.1H6.279l-.156.322a.5.5,0,0,1-.439.293,1.12,1.12,0,0,1-.488-.117q-.225-.107-.225-.244a.93.93,0,0,1,.137-.4A35.187,35.187,0,0,0,7.4,5.742H6.768a8.9,8.9,0,0,0-1.426.117l-.176-.742a9.384,9.384,0,0,0,1.582.127h.615q.537-.605.684-.605t.723.576q.3.332.3.488,0,.186-.586.4Q7.52,8.711,6.543,10.742H7.861q.557-.625.664-.625t.723.557q.361.332.361.449,0,.176-.527.42A17.59,17.59,0,0,1,7.588,17.324ZM17.217,8.3h.439q.557-.8.7-.8t.771.664q.283.3.283.459,0,.176-.273.176H17.217q.01,1.172.049,2.129.029.732.029.742,0,.527-.664.527-.5,0-.5-.469v-.2h-2.4l.02,2.188h2.08q.713-.859.889-.859a3.216,3.216,0,0,1,.977.664q.4.322.4.518,0,.176-.264.176H13.75q.01.361.02,1.123.01.635.02.977h2.646q.771-.918.918-.918a3.515,3.515,0,0,1,1.025.723q.4.322.4.5,0,.2-.264.2H13.789q.01.527.029,1.24.01.42.01.547,0,.576-.762.576-.537,0-.537-.459,0-.117.01-.684.02-.635.029-1.221H10.332a7.3,7.3,0,0,0-1.289.117l-.2-.752a8.747,8.747,0,0,0,1.436.137h2.3l.02-2.1H10.869a6.934,6.934,0,0,0-1.24.117l-.186-.752a8.833,8.833,0,0,0,1.426.137h1.738l.02-2.187H11.27a6.564,6.564,0,0,0-1.26.137L9.8,10.918a8.317,8.317,0,0,0,1.426.117h1.4V8.8H10.3a7.687,7.687,0,0,0-1.357.117l-.2-.752A9.971,9.971,0,0,0,10.3,8.3h2.324V6.055h-1.6a6.758,6.758,0,0,0-1.182.137l-.2-.752a8.659,8.659,0,0,0,1.338.117h1.641q-.029-1.738-.1-2.344a9.923,9.923,0,0,1,1.553.273q.273.1.273.273,0,.205-.625.459V5.557H16q.547-.625.674-.625a2.273,2.273,0,0,1,.742.518q.342.293.342.439,0,.166-.537.527Zm-1.084,0V6.055h-2.4V8.3Zm0,.5h-2.4v2.236h2.4ZM3.057,9.336a5.146,5.146,0,0,1,.957.244.246.246,0,0,1,.176.225q0,.186-.576.459v3.516l.02,7.109q0,.576-.742.576-.537,0-.537-.5,0-.117.01-.82.049-2.549.088-6.328.02-1.133.02-3.437a17.794,17.794,0,0,1-1.9,2.666.094.094,0,0,1-.068.029q-.186,0-.186-.156a.087.087,0,0,1,.01-.039A24.3,24.3,0,0,0,3.477,5.137a11.148,11.148,0,0,0,.313-1.914q1.885.479,1.885.82,0,.264-.742.42A22.6,22.6,0,0,1,3.057,9.336Zm8.438,26.385a9.854,9.854,0,0,0,2.139,3.242,16.174,16.174,0,0,0,1.8-1.9,5,5,0,0,0,.518-.82q1.357.928,1.357,1.191,0,.234-.332.234a2.605,2.605,0,0,1-.508-.068,17.544,17.544,0,0,1-2.52,1.66,7.648,7.648,0,0,0,.645.527A10.663,10.663,0,0,0,18.8,41.6a.076.076,0,0,1,.068.088.128.128,0,0,1-.107.146.925.925,0,0,0-.8.723q-.127.361-.322.361a1.564,1.564,0,0,1-.605-.2A10.813,10.813,0,0,1,13.77,40.34,13.742,13.742,0,0,1,11.211,36l.039,2.139q.1,3.018.1,3.994a1.3,1.3,0,0,1-.645,1.143,1.722,1.722,0,0,1-1.094.322q-.186,0-.234-.059a.757.757,0,0,1-.068-.264.848.848,0,0,0-.459-.625,6.9,6.9,0,0,0-1.5-.469q-.078-.02-.078-.137,0-.146.1-.127,1.455.137,2.4.137.342,0,.342-.322v-2.6a29.176,29.176,0,0,1-4.98,2.324q-.1.732-.342.732t-.937-1.816A13.152,13.152,0,0,0,5.166,40.2a25.337,25.337,0,0,0,4.941-1.445V35.721H6.572a7.352,7.352,0,0,0-1.406.137l-.2-.752a10.328,10.328,0,0,0,1.572.117h3.564V33.2H4.092a28.311,28.311,0,0,1-.5,4.18A13.48,13.48,0,0,1,.84,43.191a.119.119,0,0,1-.088.029q-.186,0-.186-.137a.087.087,0,0,1,.01-.039A17.614,17.614,0,0,0,2.51,37.322a52.257,52.257,0,0,0,.4-7.2q0-2.07-.127-3.447a9.045,9.045,0,0,1,1.6.859H9.8V26.58a8.934,8.934,0,0,0-.1-1.279,9.309,9.309,0,0,1,1.738.293q.3.1.3.283,0,.254-.742.537v1.123H16.27q.83-.977.977-.977a4.054,4.054,0,0,1,1.1.742q.459.371.459.537,0,.2-.264.2H4.17v1.523q0,1.729-.059,3.145h6V30.8H6.846a6.451,6.451,0,0,0-1.377.137l-.205-.771a11.025,11.025,0,0,0,1.563.137h3.281a17.325,17.325,0,0,0-.1-1.924,10.423,10.423,0,0,1,1.6.264q.254.088.254.254,0,.225-.615.469V30.3h3.662q.576-.645.732-.645a2.142,2.142,0,0,1,.762.5q.322.264.322.469,0,.166-.5.537V32.7h.693q.762-.937.967-.937.166,0,.977.742.342.293.342.518,0,.176-.264.176H16.23q.01,1.016.039,1.826.02.586.02.615,0,.537-.723.537-.5,0-.5-.439v-.02ZM11.25,30.8v1.9h3.818V30.8Zm3.818,2.4H11.25v2.021h3.818ZM5.791,36.561a.084.084,0,0,1-.029-.059q0-.1.107-.1H5.9a4.536,4.536,0,0,1,1.8.879,1.342,1.342,0,0,1,.508.977q0,.684-.586.684-.4,0-.625-.625A4.276,4.276,0,0,0,5.791,36.561ZM11.553,51.5h5.166q.605-.7.752-.7t.859.645q.322.293.322.479,0,.156-.537.479a47.81,47.81,0,0,1-.918,9.7,5.923,5.923,0,0,1-1.143,2.529,1.923,1.923,0,0,1-1.387.6.79.79,0,0,1-.352-.049.351.351,0,0,1-.068-.2.906.906,0,0,0-.518-.684,7.861,7.861,0,0,0-1.748-.586q-.068-.02-.068-.127,0-.176.107-.156,1.914.215,2.607.215a.952.952,0,0,0,.869-.527,6.891,6.891,0,0,0,.518-1.514,46.1,46.1,0,0,0,.859-9.6H11.318a14.951,14.951,0,0,1-2.686,3.8.105.105,0,0,1-.059.02q-.2,0-.2-.166a.087.087,0,0,1,.01-.039,17.5,17.5,0,0,0,1.689-3.154,19.833,19.833,0,0,0,1.016-3.018,15.417,15.417,0,0,0,.342-1.875A11.413,11.413,0,0,1,13.057,48q.3.137.3.313,0,.273-.723.42A23.711,23.711,0,0,1,11.553,51.5Zm-7.637.039a21.123,21.123,0,0,0,.664-2.461,8.047,8.047,0,0,0,.2-1.377,13.726,13.726,0,0,1,1.592.469q.293.117.293.293,0,.273-.742.42a19.55,19.55,0,0,1-1.543,2.656H6.621q.6-.645.732-.645a2.491,2.491,0,0,1,.8.518q.342.273.342.439t-.518.547v3.525l.1,7.295q0,.537-.762.537-.518,0-.518-.439v-.84H3.154v1.279q0,.527-.762.527-.5,0-.5-.42l.078-7.139q0-4.5-.117-5.928a11.145,11.145,0,0,1,1.455.742ZM6.8,61.979V56.9H3.154v5.078Zm0-5.576V52.037H3.154V56.4Zm4.1-1.5a.105.105,0,0,1-.02-.059q0-.166.156-.166a.161.161,0,0,1,.049.01,5.98,5.98,0,0,1,2.324,1.729,2.641,2.641,0,0,1,.645,1.6,1.189,1.189,0,0,1-.244.8.6.6,0,0,1-.469.225q-.547,0-.684-.742A6.961,6.961,0,0,0,10.9,54.9ZM6.992,75.2a12.87,12.87,0,0,1-2.236.205,2.617,2.617,0,0,1-1.25-.312,1.83,1.83,0,0,1-.771-.732.6.6,0,0,1-.078-.244.138.138,0,0,1,.156-.156.617.617,0,0,1,.3.117,2.678,2.678,0,0,0,1.6.469,12.071,12.071,0,0,0,2.676-.322q.352-.85.7-1.963a2.766,2.766,0,0,0,.1-.7.62.62,0,0,0-.361-.5,2.048,2.048,0,0,0-.762-.3q-.156-.039-.156-.117,0-.361.684-.361a3.841,3.841,0,0,1,1.553.459q.645.3.645.625a.526.526,0,0,1-.244.459,2.2,2.2,0,0,0-.518.82q-.02.049-.273.635-.166.4-.3.7a11.777,11.777,0,0,0,1.7-.635,2.67,2.67,0,0,1,1.016-.322.673.673,0,0,1,.449.166.446.446,0,0,1,.2.371q0,.41-.664.645a31.946,31.946,0,0,1-3.135.84q-2.295,5.273-3.779,8.213a.67.67,0,0,1-.664.4.5.5,0,0,1-.4-.205.6.6,0,0,1-.137-.391.873.873,0,0,1,.137-.479A59.621,59.621,0,0,0,6.992,75.2Zm7.061,1.436a5.3,5.3,0,0,0-1.738-.244,6.289,6.289,0,0,0-1.055.088h-.049q-.254,0-.254-.166,0-.215.283-.293a6.063,6.063,0,0,1,1.7-.225,7.393,7.393,0,0,1,1.963.273,5.232,5.232,0,0,1,1.494.645q.84.566.84,1.143a.512.512,0,0,1-.146.361.5.5,0,0,1-.352.137.944.944,0,0,1-.664-.322,2.328,2.328,0,0,0-1.641-.771,1.921,1.921,0,0,0-1.416.566,1.692,1.692,0,0,0-.5,1.23,11.58,11.58,0,0,0,.225,2.021q.068.352.225,1.074.117.547.166.83a10.676,10.676,0,0,1,3.7,1.738.9.9,0,0,1,.342.7.518.518,0,0,1-.6.576,1.043,1.043,0,0,1-.527-.225,11.78,11.78,0,0,0-2.842-1.738,2.836,2.836,0,0,1-.654,1.816,3.222,3.222,0,0,1-2.4.762,3.182,3.182,0,0,1-2.119-.645,1.571,1.571,0,0,1-.625-1.25,1.825,1.825,0,0,1,1-1.611,3.658,3.658,0,0,1,1.924-.488,8.543,8.543,0,0,1,1.748.137q-.322-2.871-.322-3.2a2.605,2.605,0,0,1,.635-1.875,3.609,3.609,0,0,1,1.65-.879q.1-.039.1-.1Q14.141,76.664,14.053,76.635Zm-1.895,7.041a5.393,5.393,0,0,0-1.807-.293,3.57,3.57,0,0,0-1.729.361,1.017,1.017,0,0,0-.6.9.889.889,0,0,0,.547.8,2.92,2.92,0,0,0,1.377.273,2.355,2.355,0,0,0,1.66-.5A2.108,2.108,0,0,0,12.158,83.676Zm2.207,16.785a2.393,2.393,0,0,0,.283-.342A12.909,12.909,0,0,0,16.5,97q1.5.859,1.5,1.123t-.762.273a23.39,23.39,0,0,1-2.881,3.584q.01,2.949.059,4.639,0,.01.029.889.01.264.01.41a1.363,1.363,0,0,1-.684,1.221,1.988,1.988,0,0,1-1.2.342.232.232,0,0,1-.254-.244.922.922,0,0,0-.479-.732,5.777,5.777,0,0,0-1.621-.469q-.078-.02-.078-.137,0-.166.1-.146,1.572.146,2.578.146.342,0,.342-.361v-4.4a24.053,24.053,0,0,1-11.318,5.605q-.156.029-.156-.186a.09.09,0,0,1,.059-.1,28.482,28.482,0,0,0,10.9-6.133,81.041,81.041,0,0,1-9.551,1.8q-.176.654-.4.654-.2,0-.332-.4a11.178,11.178,0,0,1-.371-1.533q.312.01.615.01.449,0,.967-.029.84-.039,1.279-.078V97.18q0-2.9-.117-4.082a9.046,9.046,0,0,1,1.543.781H8.193q.293-.928.42-1.523A7.645,7.645,0,0,0,8.77,91.3q1.875.449,1.875.791,0,.322-.811.42-.713.986-1.025,1.367h4.18q.654-.7.771-.7a3.556,3.556,0,0,1,.84.586q.322.264.322.439,0,.205-.557.557Zm-1.2,1.318V99.963H6.055v2.7Q9.893,102.336,13.164,101.779Zm0-2.314v-2.3H6.055v2.3Zm0-2.8V94.377H6.055v2.285Zm-9.355,22.8a5.3,5.3,0,0,1,1,.234q.186.078.186.225,0,.234-.645.5v3.457l.02,7.021q0,.625-.762.625-.557,0-.557-.537,0-.107.01-.8.049-2.51.088-6.26l.039-3.525a19.82,19.82,0,0,1-2.461,2.861.066.066,0,0,1-.049.02q-.205,0-.205-.176a.1.1,0,0,1,.02-.049,20.487,20.487,0,0,0,2.4-3.838,24.9,24.9,0,0,0,1.475-3.662A13.627,13.627,0,0,0,4.9,113.4q1.963.635,1.963.9t-.8.381A26.487,26.487,0,0,1,3.809,119.463Zm7.314-1.24V116.24a23.844,23.844,0,0,0-.117-2.754,11.363,11.363,0,0,1,1.729.273q.312.1.313.264,0,.244-.723.557v3.643h4.1q.908-1.084,1.035-1.084.2,0,1.084.781.518.449.518.625t-.273.176h-6.2A14.238,14.238,0,0,0,15.8,123.35a12.147,12.147,0,0,0,3.613,2.578.069.069,0,0,1,.049.068q0,.107-.127.137a1.156,1.156,0,0,0-.781.771q-.1.283-.312.283a1.625,1.625,0,0,1-.605-.342,14.5,14.5,0,0,1-2.852-3,16.831,16.831,0,0,1-2.52-4.9l.1,7.441h1.582q.723-.879.879-.879a3.312,3.312,0,0,1,.938.7q.381.332.381.5t-.254.176H12.383q.039,3.916.039,4.023,0,.576-.82.576-.557,0-.557-.459,0-1.1.059-4.141H9.023a6.821,6.821,0,0,0-1.26.117l-.205-.752A7.359,7.359,0,0,0,9,126.387h2.1q.01-.586.049-3.486.02-1.855.049-3.057a20.53,20.53,0,0,1-6.152,7.422.1.1,0,0,1-.049.02q-.176,0-.176-.186a.066.066,0,0,1,.02-.049,21.905,21.905,0,0,0,5.5-8.33H7.119a7.687,7.687,0,0,0-1.357.117l-.176-.752a7.833,7.833,0,0,0,1.514.137Zm3.34,30.3a11.374,11.374,0,0,1,3.057,1.621.849.849,0,0,1,.342.557.534.534,0,0,1-.439.625.548.548,0,0,1-.107.01,1.007,1.007,0,0,1-.6-.234,17.34,17.34,0,0,0-2.275-1.523,1.906,1.906,0,0,1-.771,1.553,3.246,3.246,0,0,1-2.129.645,3.4,3.4,0,0,1-2.1-.6,1.617,1.617,0,0,1-.7-1.348,1.554,1.554,0,0,1,.82-1.377,3.689,3.689,0,0,1,2-.479,7.634,7.634,0,0,1,1.895.225l-.059-5.586a22,22,0,0,1-3.135.225,2.1,2.1,0,0,1-2.1-1.406.964.964,0,0,1-.059-.293q0-.186.176-.186.137,0,.3.244a1.823,1.823,0,0,0,1.563.762,20.7,20.7,0,0,0,3.232-.3q0-1.24-.078-2.959a.973.973,0,0,0-.254-.762,1.686,1.686,0,0,0-.947-.234q-.254,0-.254-.205,0-.166.264-.312a1.069,1.069,0,0,1,.518-.127A3.083,3.083,0,0,1,14,137.42q.84.391.84.859a.579.579,0,0,1-.244.439,1.168,1.168,0,0,0-.254.82q-.068.986-.068,1.934a8.676,8.676,0,0,0,.986-.254q.127-.049.6-.3a1.979,1.979,0,0,1,1-.225.877.877,0,0,1,.5.137.4.4,0,0,1,.205.342q0,.371-.576.586a19.614,19.614,0,0,1-2.686.7Q14.3,146.014,14.463,148.523Zm-1.045.635a6.249,6.249,0,0,0-2.275-.439,2.541,2.541,0,0,0-1.3.293.869.869,0,0,0-.488.762q0,1.143,2.021,1.143a2.17,2.17,0,0,0,1.563-.508A1.631,1.631,0,0,0,13.418,149.158Zm-9.336-2.393a14.549,14.549,0,0,0,.117,2.275q.078.361.186.361a.153.153,0,0,0,.156-.117q.693-2.08,1.5-4.043.078-.225.264-.225t.176.264a.643.643,0,0,1-.039.2q-1.064,3.76-1.123,4.023a8.106,8.106,0,0,0-.176,1.025l.02,1.2q0,.537-.459.537a.781.781,0,0,1-.684-.518,10.453,10.453,0,0,1-.762-4.609,26.068,26.068,0,0,1,.977-6.4,6.86,6.86,0,0,0,.322-1.768,2.742,2.742,0,0,0-.459-1.416.574.574,0,0,1-.1-.244q0-.2.234-.2a.758.758,0,0,1,.4.2,3.176,3.176,0,0,1,.84.928,2.281,2.281,0,0,1,.4,1.3,1,1,0,0,1-.283.664,1.861,1.861,0,0,0-.312.674,17.627,17.627,0,0,0-.908,3.2A14.209,14.209,0,0,0,4.082,146.766ZM11.7,171.637a18.142,18.142,0,0,0,2.539-2.139,5.645,5.645,0,0,0,.879-1.152q1.465.869,1.465,1.182,0,.2-.4.2a3.1,3.1,0,0,1-.439-.039,23.65,23.65,0,0,1-3.721,2.217,9.292,9.292,0,0,0,1.377.859,13.315,13.315,0,0,0,5.137,1.328q.068,0,.068.078a.106.106,0,0,1-.088.117,1.374,1.374,0,0,0-.6.273,1.432,1.432,0,0,0-.342.586.379.379,0,0,1-.381.3,3.825,3.825,0,0,1-.918-.2,13.3,13.3,0,0,1-3.516-1.6,9.221,9.221,0,0,1-2.1-1.895,15.812,15.812,0,0,1-1.719-2.773H6.025v4.443a32.059,32.059,0,0,0,4.492-1.221h.02q.107,0,.107.156a.115.115,0,0,1-.049.107,34.4,34.4,0,0,1-6.953,2.656q-.166.635-.4.635-.254,0-.82-1.816a15.061,15.061,0,0,0,1.807-.186q.107-.02.322-.049.2-.029.293-.049v-6.523q0-2.939-.039-3.994a26.243,26.243,0,0,1-3.916,2.1H.859q-.137,0-.137-.2,0-.068.039-.088a22.814,22.814,0,0,0,6.963-5.9,8.3,8.3,0,0,0,1.182-1.943q1.895.605,1.895.908,0,.186-.537.293a15.068,15.068,0,0,0,4.023,3.438,16.838,16.838,0,0,0,5.059,1.9.085.085,0,0,1,.078.1.1.1,0,0,1-.1.117,1.09,1.09,0,0,0-.566.244,1.813,1.813,0,0,0-.332.615q-.088.283-.322.283a1.07,1.07,0,0,1-.342-.078,19.211,19.211,0,0,1-4.16-2.461,15.683,15.683,0,0,1-3.76-3.994A21.911,21.911,0,0,1,5.283,162.8q.146.049.84.4h2.8v-.937q0-.43-.1-1.367a10.49,10.49,0,0,1,1.65.244q.264.088.264.264,0,.254-.635.537v1.26h2.949q.469-.439.566-.439a2.489,2.489,0,0,1,.723.479q.459.381.459.5t-.361.361v1.338l.078,3.291q0,.557-.742.557-.469,0-.518-.3H9.482A10.6,10.6,0,0,0,11.7,171.637Zm1.563-3.154v-2.207H6.025v2.207Zm0-2.705V163.7H6.025v2.08Zm5.186,24.559q0,.762-.6.762a.994.994,0,0,1-.527-.137,1.171,1.171,0,0,0-.654-.156q-1.182,0-2.324.078H14.3q-.234,0-.234-.244,0-.186.225-.234,1.67-.322,2.354-.527.283-.078.283-.293a3.33,3.33,0,0,0-.947-1.943,8.652,8.652,0,0,0-2.07-1.8.269.269,0,0,1-.117-.225q0-.215.176-.215a.628.628,0,0,1,.283.059,7.635,7.635,0,0,1,3.115,2.383A4.169,4.169,0,0,1,18.447,190.336Zm-9.8-5.059a7.213,7.213,0,0,1,1.279-.137q2.08,0,2.08,2.822a11.886,11.886,0,0,1-.264,2.217A14.159,14.159,0,0,1,11.2,192.2a6.536,6.536,0,0,1-1.641,2.842,2.355,2.355,0,0,1-1.66.8.673.673,0,0,1-.713-.586,1.413,1.413,0,0,0-.3-.576,11.508,11.508,0,0,0-1.123-1.162.253.253,0,0,1-.078-.186q0-.2.176-.2a.424.424,0,0,1,.205.1,13.548,13.548,0,0,0,1.68,1.064,1.164,1.164,0,0,0,.518.1A1.02,1.02,0,0,0,9,194.076a8.125,8.125,0,0,0,1.445-2.979,12.743,12.743,0,0,0,.557-3.516q0-1.8-1.182-1.8a4.843,4.843,0,0,0-1.582.332Q5.83,191.3,3.447,195.336a.582.582,0,0,1-.547.322q-.576,0-.576-.5a.945.945,0,0,1,.176-.527A72.941,72.941,0,0,0,7.188,186.4q-.723.234-2.041.762a3.46,3.46,0,0,0-.762.361.748.748,0,0,1-.42.156,1.236,1.236,0,0,1-.84-.381,2.04,2.04,0,0,1-.742-1.309q0-.459.225-.459.059,0,.176.205a1.133,1.133,0,0,0,.977.684,5.461,5.461,0,0,0,1.406-.264q2.051-.557,2.4-.664a23.46,23.46,0,0,0,.918-2.373,2.716,2.716,0,0,0,.156-.82q0-.3-.43-.547a1.967,1.967,0,0,0-.84-.234q-.225-.029-.225-.176,0-.1.156-.205a1.385,1.385,0,0,1,.762-.156,2.788,2.788,0,0,1,1.445.449q.713.439.713.967a.42.42,0,0,1-.283.4,1.42,1.42,0,0,0-.5.664Q8.809,184.916,8.643,185.277Zm-.127,19.8v-.059a4.4,4.4,0,0,1-1.191-.986,3.055,3.055,0,0,1-.781-1.67v-.049q0-.215.186-.215.137,0,.234.2a3.525,3.525,0,0,0,1.1,1.289,5.459,5.459,0,0,0,1.279.615,3.13,3.13,0,0,1,1.074.615,1.149,1.149,0,0,1,.42.723q0,.557-.537.557a1.969,1.969,0,0,1-.586-.1A2.515,2.515,0,0,0,9,205.9a6.345,6.345,0,0,0-1.416.2,6.2,6.2,0,0,0-1.367.469q-.381.176-.381.371a1.12,1.12,0,0,0,.117.488,1.7,1.7,0,0,1,.166.713q0,.225-.205,1.484a26.063,26.063,0,0,0-.283,3.193q0,.244.059.244a.428.428,0,0,0,.186-.078A22.7,22.7,0,0,1,9.5,210.588a6.543,6.543,0,0,1,2.891-.771,4.359,4.359,0,0,1,2.891.938,2.873,2.873,0,0,1,1.055,2.3q0,2.441-3.1,3.916a16.563,16.563,0,0,1-6.26,1.406H6.934q-.293,0-.293-.264,0-.244.3-.283a15.059,15.059,0,0,0,5.615-1.719,5.779,5.779,0,0,0,1.9-1.572A3.115,3.115,0,0,0,15,212.717a2.1,2.1,0,0,0-.85-1.758,2.725,2.725,0,0,0-1.709-.547,5.833,5.833,0,0,0-3.076,1.025,10.37,10.37,0,0,0-2.3,1.963,6.637,6.637,0,0,0-1.025,1.3.636.636,0,0,1-.615.459q-.273,0-.537-.459a2.032,2.032,0,0,1-.264-1.123,27.633,27.633,0,0,1,.508-4.473,6.156,6.156,0,0,0,.117-1.123l-.068-.84a1.236,1.236,0,0,1,.742-1.025A12.512,12.512,0,0,1,8.516,205.08Zm1.572,21.9h6.064q.908-1.064,1.055-1.064a4.177,4.177,0,0,1,1.123.781q.479.41.479.586,0,.2-.264.2h-6.4v3.379h3.584q.8-.957.977-.957a3.58,3.58,0,0,1,1.035.723q.439.342.439.557,0,.176-.254.176H12.148v3.682h3.643q.83-.957.977-.957a3.461,3.461,0,0,1,1.045.742q.439.361.439.518,0,.2-.264.2h-5.84l.059,5.342q0,.615-.82.615-.576,0-.576-.518l.1-5.039V227.48H9.844a17.535,17.535,0,0,1-3.8,4.98.066.066,0,0,1-.049.02q-.205,0-.205-.176a.1.1,0,0,1,.02-.049,20.528,20.528,0,0,0,2.363-3.789,20.719,20.719,0,0,0,1.416-3.682,10.647,10.647,0,0,0,.3-1.465q1.953.547,1.953.859t-.8.42Q10.586,225.908,10.088,226.982Zm-6.064,2.48a5.5,5.5,0,0,1,1.045.244q.2.088.2.234,0,.225-.615.479v3.457l.02,7.021q0,.625-.762.625-.557,0-.557-.5,0-.117.01-.82.049-2.529.088-6.279l.02-3.682a19.632,19.632,0,0,1-2.686,2.832.066.066,0,0,1-.049.02q-.186,0-.186-.176a.039.039,0,0,1,.02-.039,21.555,21.555,0,0,0,2.744-4.023A21.005,21.005,0,0,0,4.951,225a11.221,11.221,0,0,0,.381-1.66q1.953.537,1.953.879,0,.293-.8.4A24.656,24.656,0,0,1,4.023,229.463ZM8.516,249.08v-.059a4.4,4.4,0,0,1-1.191-.986,3.055,3.055,0,0,1-.781-1.67v-.049q0-.215.186-.215.137,0,.234.2a3.525,3.525,0,0,0,1.1,1.289,5.459,5.459,0,0,0,1.279.615,3.13,3.13,0,0,1,1.074.615,1.149,1.149,0,0,1,.42.723q0,.557-.537.557a1.969,1.969,0,0,1-.586-.1A2.515,2.515,0,0,0,9,249.9a6.345,6.345,0,0,0-1.416.2,6.2,6.2,0,0,0-1.367.469q-.381.176-.381.371a1.12,1.12,0,0,0,.117.488,1.7,1.7,0,0,1,.166.713q0,.225-.205,1.484a26.063,26.063,0,0,0-.283,3.193q0,.244.059.244a.428.428,0,0,0,.186-.078A22.7,22.7,0,0,1,9.5,254.588a6.543,6.543,0,0,1,2.891-.771,4.359,4.359,0,0,1,2.891.938,2.873,2.873,0,0,1,1.055,2.3q0,2.441-3.1,3.916a16.563,16.563,0,0,1-6.26,1.406H6.934q-.293,0-.293-.264,0-.244.3-.283a15.06,15.06,0,0,0,5.615-1.719,5.779,5.779,0,0,0,1.9-1.572A3.115,3.115,0,0,0,15,256.717a2.1,2.1,0,0,0-.85-1.758,2.725,2.725,0,0,0-1.709-.547,5.833,5.833,0,0,0-3.076,1.025,10.371,10.371,0,0,0-2.3,1.963,6.637,6.637,0,0,0-1.025,1.3.636.636,0,0,1-.615.459q-.273,0-.537-.459a2.032,2.032,0,0,1-.264-1.123,27.633,27.633,0,0,1,.508-4.473,6.156,6.156,0,0,0,.117-1.123l-.068-.84a1.236,1.236,0,0,1,.742-1.025A12.512,12.512,0,0,1,8.516,249.08ZM6.66,277.3q0,2.393.078,4.355.01.215.059.781.039.391.039.684,0,1.416-.7,1.416-.293,0-.4-.42a3.938,3.938,0,0,0-.557-1.26,12.786,12.786,0,0,0-1.582-1.924q-.2.254-.469.615t-.332.42a.637.637,0,0,1-.5.283q-.459,0-.459-.518a1.13,1.13,0,0,1,.381-.8q.215-.215.8-.879A21.147,21.147,0,0,0,5.879,275.8q.02-.225.078-1.465-1.143.557-1.484.762a2.161,2.161,0,0,0-.4.264.718.718,0,0,1-.479.156q-.371,0-.82-.557a1.716,1.716,0,0,1-.479-1.084q0-.361.2-.361.078,0,.225.225.43.674.879.674a2.6,2.6,0,0,0,.664-.156A16.71,16.71,0,0,0,6,273.473q.059-1.729.059-3.232a1.265,1.265,0,0,0-.977-1.348.27.27,0,0,1-.244-.273q0-.264.557-.264a2.6,2.6,0,0,1,1.5.625q.684.508.684.9a.485.485,0,0,1-.205.42,1.157,1.157,0,0,0-.312.713,18.564,18.564,0,0,0-.186,2.168.955.955,0,0,1,.322-.068.618.618,0,0,1,.4.225.506.506,0,0,1,.176.352.679.679,0,0,1-.2.361,7.738,7.738,0,0,0-.84,1.5l-.039.684a43.035,43.035,0,0,1,3.418-3.281,5.086,5.086,0,0,1,2.656-1.416,1.738,1.738,0,0,1,1.514.771,2.1,2.1,0,0,1,.391,1.23,30.66,30.66,0,0,1-.361,3.242,28.987,28.987,0,0,0-.342,3.818,1.55,1.55,0,0,0,.3,1.113,1.155,1.155,0,0,0,.82.244,3.571,3.571,0,0,0,2.2-.957,6.951,6.951,0,0,0,1.6-1.9q.156-.283.273-.283.283,0,.283.244a.666.666,0,0,1-.059.215,7.834,7.834,0,0,1-1.855,2.666,3.474,3.474,0,0,1-2.4,1.035,1.942,1.942,0,0,1-2.178-2.217,37.147,37.147,0,0,1,.264-4.082,30.177,30.177,0,0,0,.234-3.057q0-1.338-.781-1.338a4.7,4.7,0,0,0-2.441,1.377A34.631,34.631,0,0,0,6.66,277.3Zm-2.8,3.252q.654.654,1.816,1.65a.188.188,0,0,0,.1.029q.088,0,.088-.1V277.76Q5.176,278.717,3.857,280.553Zm7.881,24.529a3.834,3.834,0,0,0,2.07-1.523,3.312,3.312,0,0,0,.654-1.914,3.081,3.081,0,0,0-1.133-2.607,3.214,3.214,0,0,0-2.012-.635,7.063,7.063,0,0,0-4.736,2.061,13.5,13.5,0,0,0-1.4,1.572.559.559,0,0,1-.479.225.645.645,0,0,1-.469-.205.586.586,0,0,1-.2-.439,1.239,1.239,0,0,1,.4-.762,103.732,103.732,0,0,0,7.256-8.486.306.306,0,0,0,.068-.146q0-.068-.1-.068a.482.482,0,0,0-.146.029q-1.641.547-3.223,1.152a1.924,1.924,0,0,0-.518.264.861.861,0,0,1-.5.264,1.554,1.554,0,0,1-1.123-.7,2,2,0,0,1-.537-1.2q0-.322.176-.322.146,0,.342.264a1.293,1.293,0,0,0,.967.625,5.98,5.98,0,0,0,1.133-.156q.859-.2,2.686-.732a1.229,1.229,0,0,0,.5-.322.573.573,0,0,1,.42-.176,1.819,1.819,0,0,1,.977.439q.684.459.684.859,0,.322-.381.42a2.462,2.462,0,0,0-1,.7q-.156.156-5.146,5.723l.039.02a7.505,7.505,0,0,1,4.2-1.543,4.426,4.426,0,0,1,3.613,1.436,3.8,3.8,0,0,1,.869,2.51,4.086,4.086,0,0,1-1.895,3.535,6.052,6.052,0,0,1-3.525,1.045,5.13,5.13,0,0,1-2.891-.7,1.748,1.748,0,0,1-.869-1.475,1.412,1.412,0,0,1,.6-1.2,2.073,2.073,0,0,1,1.279-.381,3.3,3.3,0,0,1,2.422,1.064A3.525,3.525,0,0,1,11.738,305.082Zm-1.094.2a3.257,3.257,0,0,0-1.084-1.6,2.082,2.082,0,0,0-1.318-.576,1.089,1.089,0,0,0-.85.313.813.813,0,0,0-.225.586,1.139,1.139,0,0,0,.713.957,4.149,4.149,0,0,0,2,.41A2.421,2.421,0,0,0,10.645,305.277Z" transform="translate(145 177)" fill="#bfa84e"/></g></svg>